<?xml version="1.0" encoding="utf-8"?>
<!-- Generator: Adobe Illustrator 27.2.0, SVG Export Plug-In . SVG Version: 6.00 Build 0)  -->
<svg version="1.1" id="Layer_1" xmlns="http://www.w3.org/2000/svg" xmlns:xlink="http://www.w3.org/1999/xlink" x="0px" y="0px"
	 viewBox="0 0 600 1625" style="enable-background:new 0 0 600 1625;" xml:space="preserve">
<style type="text/css">
	.st0{fill:#EBEBEA;}
	.st1{fill:#294B9A;}
	.st2{font-family:'SofiaPro-Black';}
	.st3{font-size:97.6302px;}
	.st4{letter-spacing:-4;}
</style>
<path class="st0" d="M355.9,1188.5h-282h-32v31.9v109.4v96.7v80.7v13.3c0,17.5,14.4,31.9,31.9,31.9h15.7h266.3"/>
<path class="st0" d="M420,477.8h61.8h32v-31.9V336.6v-96.7v-80.8v-13.3c0-17.5-14.4-31.9-31.9-31.9h-15.7h-48.5"/>
<rect x="41.9" y="113.9" class="st0" width="401.1" height="1088.4"/>
<path class="st1" d="M566.4,556.2v1002.8c0,24,18.1,35,35,35v10.9c-22.8,0-45.8-15.7-45.8-45.8V553.4"/>
<path class="st1" d="M555.6,819.4V73.5c0-24-18.1-35-35-35H160.5V27.7h360.1c22.8,0,45.8,15.7,45.8,45.8v745.1"/>
<rect x="-153.5" y="27.7" class="st1" width="323.7" height="10.8"/>
<rect x="313.6" y="319.6" class="st0" width="200.1" height="1232.8"/>
<g id="Layer_2_00000178178044703607318210000001522388852811501737_">
	<text transform="matrix(1 0 0 1 42.1639 124.375)" class="st0 st2 st3 st4">AHR</text>
</g>
</svg>
