<?xml version="1.0" encoding="utf-8"?>
<!-- Generator: Adobe Illustrator 27.2.0, SVG Export Plug-In . SVG Version: 6.00 Build 0)  -->
<svg version="1.1" id="Layer_1" xmlns="http://www.w3.org/2000/svg" xmlns:xlink="http://www.w3.org/1999/xlink" x="0px" y="0px"
	 viewBox="0 0 600 1625" style="enable-background:new 0 0 600 1625;" xml:space="preserve">
<style type="text/css">
	.st0{fill:#EBEBEA;}
	.st1{fill:#294B9A;}
	.st2{enable-background:new    ;}
	.st3{fill:#FFFFFF;}
</style>
<path class="st0" d="M355,1187.3H73H41v31.9v109.4v96.7v80.7v13.3c0,17.5,14.4,31.9,31.9,31.9h15.7h266.3"/>
<path class="st0" d="M419.1,476.6h61.8h32v-31.9V335.4v-96.7v-80.8v-13.3c0-17.5-14.4-31.9-31.9-31.9h-15.7h-48.5"/>
<rect x="41" y="112.7" class="st0" width="401.1" height="1088.4"/>
<path class="st1" d="M565.5,555.1v1002.8c0,24,18.1,35,35,35v10.9c-22.8,0-45.8-15.7-45.8-45.8V552.3"/>
<path class="st1" d="M554.8,818.2V72.3c0-24-18.1-35-35-35H159.7V26.5h360.1c22.8,0,45.8,15.7,45.8,45.8v745.1"/>
<rect x="-154.4" y="26.5" class="st1" width="323.7" height="10.8"/>
<rect x="312.8" y="318.5" class="st0" width="200.1" height="1232.8"/>
<g id="Layer_2_00000178178044703607318210000001522388852811501737_">
	<g class="st2">
		<path class="st0" d="M124.1,120.6h-15.9l-4.5-37l-14.9,29.6H76.9L62.1,83.6l-4.6,36.9H41.6L50,55.5h13l19.9,40.7l19.6-40.7h13.3
			L124.1,120.6z"/>
		<path class="st0" d="M125.4,97.3V55.5h15.5v40.7c0,8.2,5.4,11.4,11.1,11.4c5.5,0,11-3.2,11-11.4V55.5h15.5v41.8
			c0,15-12.5,24.4-26.5,24.4S125.4,112.3,125.4,97.3z"/>
		<path class="st0" d="M179.8,101.6h15.5c0,4.2,4.4,7.4,9.7,7.4c5.1,0,8.9-2.5,8.9-6.7c0-2.6-1.5-4.9-7.5-6.8l-8.1-2.4
			c-15.1-3.9-17.9-12.7-17.9-18.8c0-11.7,10.5-19.9,24.1-19.9c13.1,0,23.1,7.5,23.1,20.1H212c0-3.9-2.5-7.2-7.8-7.2
			c-4.9,0-8,3.1-8,6.7c0,1.3,0.4,4.3,6.7,6l7.1,2.2c9.7,2.8,19.6,7.6,19.6,19.4c0,14-12.7,20.2-25.2,20.2
			C189.9,121.7,179.8,113.6,179.8,101.6z"/>
		<path class="st0" d="M231.4,120.6V55.5H247v65.1H231.4z"/>
		<path class="st0" d="M248.7,87.9c0-18.3,15.4-33.5,34.7-33.5c12,0,22.5,5.8,28.7,14.5l-12.1,8c-3.6-5.3-8.8-8.5-15.9-8.5
			c-11.5,0-19.7,8.8-19.7,19.6c0,10.8,7.9,19.8,19.6,19.8c7.2,0,12.5-3.2,16-8.5l12.1,8c-6.2,8.7-16.7,14.5-28.7,14.5
			C264.1,121.7,248.7,106.4,248.7,87.9z"/>
		<path class="st0" d="M312,120.6V55.5h15.5v65.1H312z"/>
		<path class="st0" d="M375.4,120.6l-5.1-15.1h-24l-5.1,15.1h-16.6l25.3-65.1h16.9l25.2,65.1H375.4z M350.6,92.6h15.3l-7.7-23
			L350.6,92.6z"/>
		<path class="st0" d="M424.8,55.5h15.5v65.1h-13.7l-22.4-37.4v37.4h-15.5V55.5h14.3l21.8,36.9V55.5z"/>
		<path class="st0" d="M440.6,79.6c6-7.7,8.4-14.5,8.2-24.5h13.8c0.1,12.4-8.1,22.6-15.7,28L440.6,79.6z"/>
		<path class="st0" d="M459,101.6h15.5c0,4.2,4.4,7.4,9.7,7.4c5.1,0,8.9-2.5,8.9-6.7c0-2.6-1.5-4.9-7.5-6.8l-8.1-2.4
			c-15.1-3.9-17.9-12.7-17.9-18.8c0-11.7,10.5-19.9,24.1-19.9c13.1,0,23.1,7.5,23.1,20.1h-15.5c0-3.9-2.5-7.2-7.8-7.2
			c-4.9,0-8,3.1-8,6.7c0,1.3,0.4,4.3,6.7,6l7.1,2.2c9.7,2.8,19.6,7.6,19.6,19.4c0,14-12.7,20.2-25.2,20.2
			C469.1,121.7,459,113.6,459,101.6z"/>
	</g>
</g>
<g id="Layer_2_00000054228291052341881970000002039135584439845797_">
	<g class="st2">
		<path class="st3" d="M148.8,143.4h-27.2v14.2h21.6v13.3h-21.6v26.5h-15.3V130h42.6V143.4z"/>
		<path class="st3" d="M196.1,197.3l-15.4-23.6h-3.1v23.6h-15.3V130h27.5c15.6,0,22.6,11.1,22.6,22.3c0,9.5-7,18.5-15.7,20.5
			l17.3,24.5H196.1z M177.6,143.4v18.2h9.8c6.7,0,9.7-4.4,9.7-8.9c0-4.5-3-9.3-9.3-9.3H177.6z"/>
		<path class="st3" d="M227.4,197.3V130h15.3v67.3H227.4z"/>
		<path class="st3" d="M276,183.9h28.7v13.4h-44V130h43.1v13.4H276v13.9h24.4V171H276V183.9z"/>
		<path class="st3" d="M355.2,130h15.3v67.3H357L335,158.6v38.7h-15.3V130h14.1l21.5,38.2V130z"/>
		<path class="st3" d="M414.9,130c19.4,0,30.7,14.6,30.7,33.8c0,19-11.2,33.5-30.7,33.5h-26.6V130H414.9z M414.9,183.9
			c10.1,0,15.2-9.7,15.2-20.1c0-10.5-5.2-20.4-15.2-20.4h-11.2v40.5H414.9z"/>
	</g>
</g>
</svg>
