<?xml version="1.0" encoding="utf-8"?>
<!-- Generator: Adobe Illustrator 27.2.0, SVG Export Plug-In . SVG Version: 6.00 Build 0)  -->
<svg version="1.1" id="Layer_1" xmlns="http://www.w3.org/2000/svg" xmlns:xlink="http://www.w3.org/1999/xlink" x="0px" y="0px"
	 viewBox="0 0 760 1000" style="enable-background:new 0 0 760 1000;" xml:space="preserve">
<style type="text/css">
	.st0{fill:none;stroke:#294B9A;stroke-width:10;stroke-miterlimit:10;}
	.st1{fill:#EBEBEA;}
	.st2{enable-background:new    ;}
</style>
<path class="st0" d="M760.9,139.2c-28,0-55.9,19-55.9,55.9v108.5v538.6"/>
<path class="st0" d="M760.9,981.4c-36.9,0-55.9-27.9-55.9-55.9V815.3"/>
<path class="st0" d="M-2.1,55.9h702.2c28,0,55.9-19,55.9-55.9"/>
<path class="st1" d="M274.7,622.3H67.5H44v23.4v80.4v71v59.3v9.8c0,12.9,10.6,23.4,23.4,23.4h11.5h195.7"/>
<path class="st1" d="M580,423.7h45.4H649v-23.4V320v-71v-59.4v-9.8c0-12.9-10.6-23.4-23.4-23.4H614h-35.6"/>
<rect x="44" y="156.4" class="st1" width="559.5" height="733.3"/>
<rect x="300.5" y="213.8" class="st1" width="348.5" height="675.9"/>
<g id="Layer_2_00000041997335201407711690000003359633981692883642_">
	<g class="st2">
		<path class="st1" d="M95.9,114.6h12.3l-16.8,49.4h-8.8L76,139l-6.4,25.1h-8.8l-16.6-49.4h12.1l9.1,29.5l6.1-22.6h9.3l6,22.7
			L95.9,114.6z"/>
		<path class="st1" d="M106.6,139.3c0-14,11.1-25.6,25.3-25.6c13.9,0,25.2,11.5,25.2,25.6c0,14-11.2,25.6-25.2,25.6
			C117.7,164.9,106.6,153.3,106.6,139.3z M145.7,139.3c0-8.2-5.7-14.9-13.9-14.9c-8.3,0-13.8,6.7-13.8,14.9c0,8.2,5.5,15,13.8,15
			C140,154.3,145.7,147.6,145.7,139.3z"/>
		<path class="st1" d="M186.7,164.1l-11.3-17.3h-2.3v17.3h-11.2v-49.4h20.2c11.5,0,16.6,8.2,16.6,16.4c0,7-5.1,13.6-11.5,15.1
			l12.7,18H186.7z M173.1,124.5v13.4h7.2c4.9,0,7.1-3.2,7.1-6.5c0-3.3-2.2-6.8-6.8-6.8C180.6,124.5,173.1,124.5,173.1,124.5z"/>
		<path class="st1" d="M244.5,164.1H230l-14.5-19.4v19.4h-11.2v-49.4h11.2v19.9l12.9-19.9h13.4l-16.5,24.5L244.5,164.1z"/>
	</g>
</g>
</svg>
