<?xml version="1.0" encoding="utf-8"?>
<!-- Generator: Adobe Illustrator 27.2.0, SVG Export Plug-In . SVG Version: 6.00 Build 0)  -->
<svg version="1.1" id="Layer_1" xmlns="http://www.w3.org/2000/svg" xmlns:xlink="http://www.w3.org/1999/xlink" x="0px" y="0px"
	 viewBox="0 0 600 1763.7" style="enable-background:new 0 0 600 1763.7;" xml:space="preserve">
<style type="text/css">
	.st0{fill:#EBEBEA;}
	.st1{fill:#27499A;}
	.st2{enable-background:new    ;}
</style>
<path class="st0" d="M354.5,1313.3h-282h-32v31.9v109.4v96.7v80.7v13.3c0,17.5,14.4,31.9,31.9,31.9h15.7h266.3"/>
<path class="st0" d="M418.5,465.7h61.8h32v-31.9V324.5v-96.7V147v-13.3c0-17.5-14.4-31.9-31.9-31.9h-15.7h-48.5"/>
<rect x="40.5" y="101.8" class="st0" width="401.1" height="1426.9"/>
<path class="st1" d="M565,876.5v810.3c0,24,18.1,35,35,35v10.9c-22.8,0-45.8-15.7-45.8-45.8V876.5"/>
<path class="st1" d="M554.2,1547.1V61.4c0-24-18.1-35-35-35H159.1V15.6h360.1c22.8,0,45.8,15.7,45.8,45.8v1485.7"/>
<rect x="-154.9" y="15.6" class="st1" width="323.7" height="10.8"/>
<rect x="312.2" y="393.3" class="st0" width="200.1" height="1283.9"/>
<g id="Layer_2_00000041997335201407711690000003359633981692883642_">
	<g class="st2">
		<path class="st0" d="M111.2,45h16.7l-22.8,67.3h-12l-9-34.2l-8.7,34.2h-12L40.8,45h16.5l12.4,40.2L78,54.5h12.6l8.2,30.9L111.2,45
			z"/>
		<path class="st0" d="M125.7,78.6c0-19,15.1-34.8,34.4-34.8c18.9,0,34.3,15.7,34.3,34.8s-15.3,34.9-34.3,34.9
			C140.8,113.4,125.7,97.6,125.7,78.6z M178.9,78.6c0-11.2-7.7-20.3-18.9-20.3c-11.3,0-18.8,9.1-18.8,20.3S148.7,99,160,99
			C171.2,99,178.9,89.8,178.9,78.6z"/>
		<path class="st0" d="M234.8,112.3l-15.4-23.6h-3.1v23.6H201V45h27.5c15.6,0,22.6,11.1,22.6,22.3c0,9.5-7,18.5-15.7,20.5l17.3,24.5
			H234.8z M216.2,58.4v18.2h9.8c6.7,0,9.7-4.4,9.7-8.9s-3-9.3-9.3-9.3C226.4,58.4,216.2,58.4,216.2,58.4z"/>
		<path class="st0" d="M313.4,112.3h-19.7l-19.8-26.4v26.4h-15.3V45h15.3v27.1L291.4,45h18.3l-22.4,33.3L313.4,112.3z"/>
	</g>
</g>
</svg>
