<?xml version="1.0" encoding="utf-8"?>
<!-- Generator: Adobe Illustrator 27.2.0, SVG Export Plug-In . SVG Version: 6.00 Build 0)  -->
<svg version="1.1" xmlns="http://www.w3.org/2000/svg" xmlns:xlink="http://www.w3.org/1999/xlink" x="0px" y="0px"
	 viewBox="0 0 907.3 1249.4" style="enable-background:new 0 0 907.3 1249.4;" xml:space="preserve">
<style type="text/css">
	.st0{display:none;}
	.st1{display:inline;fill:#EBEBEA;}
	.st2{display:inline;}
	.st3{fill:#FFFFFF;}
	.st4{display:inline;fill:none;stroke:#26479A;stroke-width:20;stroke-miterlimit:10;}
	.st5{font-family:'SofiaPro-Black';}
	.st6{font-size:163.372px;}
	.st7{letter-spacing:-7;}
	.st8{display:inline;fill:#FFFFFF;}
	.st9{font-size:164.9534px;}
	.st10{letter-spacing:-8;}
	.st11{fill:#2E4695;}
	.st12{font-family:'SofiaPro-UltraLight';}
	.st13{font-size:48px;}
	.st14{letter-spacing:-2;}
	.st15{fill:#EBEBEA;}
	.st16{fill:none;stroke:#26479A;stroke-width:20;stroke-miterlimit:10;}
	.st17{enable-background:new    ;}
</style>
<g id="Layer_1" class="st0">
	<path class="st1" d="M813,701.8h-26.2H149.3h-37.5v37.5V868v113.8v95v15.5c0,20.6,16.9,37.5,37.5,37.5h18.5H813h37.5v-37.5V972.7
		V858.9v-93.1v-26.5C850.5,718.6,833.6,701.8,813,701.8z"/>
	<g class="st2">
		<path class="st3" d="M441.7,1150.3l-8.6-26.4h-39.9l-8.4,26.4h-27.7l42.1-113.6h28.2l41.9,113.6H441.7z M400.3,1101.5h25.6
			l-12.9-40.1L400.3,1101.5z"/>
		<path class="st3" d="M557.8,1117.6c0,15.5-10.1,32.7-36.8,32.7h-49.3v-113.6h46c20.8,0,34.1,12.5,34.1,29.4c0,7.9-3,19.8-16,23.6
			C550.9,1091.7,557.8,1104.6,557.8,1117.6z M515.9,1059.2h-18.3v21.8h18.1c6.1,0,10.2-4,10.2-10.9
			C526,1064.4,523,1059.2,515.9,1059.2z M517.9,1127.7c9.2,0,13.9-6.3,13.9-12.7c0-5.9-4.1-12.7-13.9-12.7h-20.3v25.4L517.9,1127.7
			L517.9,1127.7z"/>
		<path class="st3" d="M561.8,1093.4c0-32.2,25.6-58.7,58.1-58.7c32,0,57.9,26.6,57.9,58.7c0,32.2-25.9,58.9-57.9,58.9
			C587.3,1152.3,561.8,1125.6,561.8,1093.4z M651.7,1093.4c0-19-13-34.3-32-34.3c-19.1,0-31.8,15.3-31.8,34.3s12.7,34.5,31.8,34.5
			C638.6,1127.9,651.7,1112.4,651.7,1093.4z"/>
		<path class="st3" d="M687,1109.7v-73.1h25.9v71.1c0,14.4,9.1,20,18.5,20c9.2,0,18.3-5.6,18.3-20v-71.1h25.9v73.1
			c0,26.2-20.8,42.6-44.2,42.6S687,1135.9,687,1109.7z"/>
		<path class="st3" d="M867.6,1036.6v22.6h-30v91.1h-25.9v-91.1h-30v-22.6H867.6z"/>
	</g>
	<path class="st4" d="M0,622.9c28,0,55.9,19,55.9,55.9v101.9V1081v69.3c0,36.9,27.9,55.9,55.9,55.9h795.5"/>
	<path class="st4" d="M111.8,622.9h683.7c28,0,55.9-19,55.9-55.9v-69.3V197.3V95.4c0-36.9,27.9-55.9,55.9-55.9"/>
	<text transform="matrix(1 0 0 1 57.9382 509.7532)" class="st1 st5 st6 st7">DESIGNER</text>
	<rect x="70.9" y="493" class="st1" width="704.7" height="20.5"/>
	<g id="Layer_2_00000027600682130061629410000007136004143646643601_">
		<text transform="matrix(1 0 0 1 312.8732 1013.3446)" class="st8 st5 st9 st10">ABOUT</text>
	</g>
	<polygon class="st1" points="789.6,509.8 789.6,513.5 775.6,513.5 771.8,498.2 	"/>
	<g class="st2">
		<text transform="matrix(1 0 0 1 70.9 513.4595)" class="st11 st12 st13 st14">graphic</text>
	</g>
	<g class="st2">
		<text transform="matrix(1 0 0 1 670.5867 513.4595)" class="st11 st12 st13 st14">brand</text>
	</g>
	<g class="st2">
		<text transform="matrix(1 0 0 1 402.4978 513.4595)" class="st11 st12 st13 st14">web</text>
	</g>
</g>
<g id="Layer_2">
	<path class="st15" d="M813,701.8h-26.2H149.3h-37.5v37.5V868v113.8v95v15.5c0,20.6,16.9,37.5,37.5,37.5h18.5H813h37.5v-37.5V972.8
		V859v-93.1v-26.5C850.5,718.6,833.6,701.8,813,701.8z"/>
	<g>
		<path class="st3" d="M441.7,1150.4l-8.6-26.4h-39.9l-8.4,26.4h-27.7l42.1-113.6h28.2l41.9,113.6H441.7z M400.3,1101.6h25.6
			l-12.9-40.1L400.3,1101.6z"/>
		<path class="st3" d="M557.8,1117.6c0,15.5-10.1,32.7-36.8,32.7h-49.3v-113.6h46c20.8,0,34.1,12.5,34.1,29.4c0,7.9-3,19.8-16,23.6
			C550.9,1091.8,557.8,1104.6,557.8,1117.6z M515.9,1059.2h-18.3v21.8h18.1c6.1,0,10.2-4,10.2-10.9
			C526,1064.4,523,1059.2,515.9,1059.2z M517.9,1127.8c9.2,0,13.9-6.3,13.9-12.7c0-5.9-4.1-12.7-13.9-12.7h-20.3v25.4H517.9
			L517.9,1127.8z"/>
		<path class="st3" d="M561.8,1093.4c0-32.2,25.6-58.7,58.1-58.7c32,0,57.9,26.6,57.9,58.7c0,32.2-25.9,58.9-57.9,58.9
			C587.3,1152.4,561.8,1125.6,561.8,1093.4z M651.7,1093.4c0-19-13-34.3-32-34.3c-19.1,0-31.8,15.3-31.8,34.3s12.7,34.5,31.8,34.5
			C638.6,1127.9,651.7,1112.4,651.7,1093.4z"/>
		<path class="st3" d="M687,1109.8v-73.1h25.9v71.1c0,14.4,9.1,20,18.5,20c9.2,0,18.3-5.6,18.3-20v-71.1h25.9v73.1
			c0,26.2-20.8,42.6-44.2,42.6S687,1135.9,687,1109.8z"/>
		<path class="st3" d="M867.6,1036.6v22.6h-30v91.1h-25.9v-91.1h-30v-22.6H867.6z"/>
	</g>
	<path class="st16" d="M0,623c28,0,55.9,19,55.9,55.9v101.9v300.3v69.3c0,36.9,27.9,55.9,55.9,55.9h795.5"/>
	<path class="st16" d="M111.8,623h683.7c28,0,55.9-19,55.9-55.9v-69.3V197.3V95.4c0-36.9,27.9-55.9,55.9-55.9"/>
	<g class="st17">
		<path class="st15" d="M115.3,397.2c32.5,0,51.3,24.5,51.3,56.5c0,31.9-18.8,56-51.3,56H70.8V397.2H115.3z M115.3,487.4
			c16.8,0,25.5-16.2,25.5-33.7c0-17.6-8.7-34.1-25.5-34.1H96.5v67.8H115.3z"/>
		<path class="st15" d="M204.2,487.4h48v22.4h-73.7V397.2h72.2v22.4h-46.6v23.2H245v23h-40.8V487.4z"/>
		<path class="st15" d="M259.4,477H285c0,7.2,7.2,12.7,16,12.7c8.3,0,14.7-4.2,14.7-11.6c0-4.4-2.5-8.5-12.4-11.8l-13.4-4.1
			c-24.8-6.7-29.6-21.9-29.6-32.5c0-20.3,17.3-34.5,39.7-34.5c21.6,0,38.1,12.9,38.1,34.8h-25.6c0-6.7-4.1-12.4-12.9-12.4
			c-8,0-13.2,5.4-13.2,11.6c0,2.3,0.7,7.4,11.1,10.3l11.8,3.8c16,4.9,32.3,13.1,32.3,33.5c0,24.2-20.9,35-41.5,35
			C276,511.8,259.4,497.7,259.4,477z"/>
		<path class="st15" d="M353.3,509.8V397.2H379v112.6H353.3z"/>
		<path class="st15" d="M390.6,453.6c0-32,25.3-58.3,57.8-58.3c17.8,0,33.3,7.5,43.1,19.3l-19,15.8c-6-7-14.5-11.3-24.2-11.3
			c-18.1,0-32,15.7-32,34.5c0,18.5,13.6,35.3,32.8,35.3c12.6,0,26.5-7,26.5-18.1H444V450h59.6c0,42.6-23.7,61.8-53.8,61.8
			C415.2,511.8,390.6,485.3,390.6,453.6z"/>
		<path class="st15" d="M572.7,397.2h25.6v112.6h-22.5l-36.9-64.7v64.7h-25.7V397.2h23.5l35.9,63.9V397.2z"/>
		<path class="st15" d="M642,487.4h48v22.4h-73.7V397.2h72.2v22.4H642v23.2h40.8v23H642V487.4z"/>
		<path class="st15" d="M759.8,509.8L734,470.3h-5.2v39.5h-25.7V397.2h46.1c26.1,0,37.9,18.6,37.9,37.2c0,15.8-11.8,31-26.3,34.3
			l28.9,41H759.8z M728.7,419.6V450h16.3c11.3,0,16.2-7.4,16.2-14.9c0-7.5-5.1-15.5-15.5-15.5H728.7z"/>
	</g>
	<rect x="70.9" y="493" class="st15" width="704.7" height="20.5"/>
	<polygon class="st15" points="789.6,509.8 789.6,513.5 775.6,513.5 771.8,498.3 	"/>
	<g>
		<g>
			<path class="st11" d="M95.3,491.1h1.4v19.4c0,11.2-4.9,14.4-12,14.4c-3.5,0-6.9-1.5-9.2-4.8l1.2-0.8c2,2.8,5,4.1,8,4.1
				c6.2,0,10.6-2.8,10.6-13V508c-2,3.6-5.8,6.1-10.3,6.1c-6.4,0-11.7-5.3-11.7-11.8c0-6.4,5.2-11.8,11.7-11.8
				c4.5,0,8.3,2.5,10.3,6.1V491.1z M95.3,502.5c0-6.1-4.7-10.6-10.3-10.6c-5.6,0-10.2,4.7-10.2,10.3c0,5.7,4.6,10.4,10.2,10.4
				C90.7,512.6,95.3,508.3,95.3,502.5z"/>
			<path class="st11" d="M115.4,490.9l-0.4,1.4c-1.1-0.3-2-0.4-2.7-0.4c-6.6,0-7.9,7.8-8,12.7v8.8h-1.4v-22.4h1.4v6.3
				c1-3.6,3.7-6.9,8-6.9C113.1,490.5,114.2,490.6,115.4,490.9z"/>
			<path class="st11" d="M136,491.1h1.4v22.4H136V508c-2,3.6-5.8,6.1-10.3,6.1c-6.4,0-11.7-5.3-11.7-11.8c0-6.4,5.2-11.8,11.7-11.8
				c4.5,0,8.3,2.5,10.3,6.1V491.1z M136,502.5c0-6.1-4.7-10.6-10.3-10.6c-5.6,0-10.2,4.7-10.2,10.3c0,5.7,4.6,10.4,10.2,10.4
				C131.4,512.6,136,508.3,136,502.5z"/>
			<path class="st11" d="M166.9,502.3c0,6.4-5.2,11.8-11.7,11.8c-4.5,0-8.3-2.5-10.3-6.1v16.4h-1.4v-33.3h1.4v5.5
				c2-3.6,5.8-6.1,10.3-6.1C161.7,490.5,166.9,495.8,166.9,502.3z M165.5,502.3c0-5.7-4.6-10.4-10.2-10.4c-5.6,0-10.3,4.3-10.3,10.1
				c0,6.1,4.7,10.6,10.3,10.6C160.9,512.6,165.5,507.9,165.5,502.3z"/>
			<path class="st11" d="M190.2,500.3v13.2h-1.4v-13.2c0-5.1-3.4-8.4-7.7-8.4c-4.2,0-8.1,2.4-8.3,8.7v12.8h-1.4v-34.6h1.4V496
				c1.3-3.9,5-5.5,8.3-5.5C186.2,490.5,190.2,494.3,190.2,500.3z"/>
			<path class="st11" d="M195.1,482.8c0-0.8,0.7-1.4,1.5-1.4c0.9,0,1.5,0.6,1.5,1.4c0,0.8-0.7,1.3-1.5,1.3
				C195.8,484.2,195.1,483.6,195.1,482.8z M195.9,513.5v-22.4h1.4v22.4H195.9z"/>
			<path class="st11" d="M201.7,502.2c0-7.1,5.3-11.7,11.7-11.7c2.7,0,5.3,1,7.3,2.4l-0.8,1.2c-1.8-1.2-4.1-2.1-6.5-2.1
				c-5.6,0-10.2,4.1-10.2,10.3c0,6.2,4.6,10.4,10.2,10.4c2.4,0,4.7-0.8,6.5-2.1l0.9,1.2c-2.1,1.5-4.6,2.4-7.3,2.4
				C207,514.1,201.7,509.3,201.7,502.2z"/>
		</g>
	</g>
	<g>
		<g>
			<path class="st11" d="M698.1,502.3c0,6.5-5.2,11.8-11.7,11.8c-4.5,0-8.3-2.5-10.3-6.1v5.5h-1.4v-34.6h1.4v17.7
				c2-3.6,5.8-6.1,10.3-6.1C692.9,490.5,698.1,495.8,698.1,502.3z M696.7,502.3c0-5.6-4.6-10.3-10.2-10.3c-5.6,0-10.3,4.4-10.3,10.6
				c0,5.8,4.7,10.1,10.3,10.1C692.1,512.6,696.7,507.9,696.7,502.3z"/>
			<path class="st11" d="M715.1,490.9l-0.4,1.4c-1.1-0.3-2-0.4-2.7-0.4c-6.6,0-7.9,7.8-8,12.7v8.8h-1.4v-22.4h1.4v6.3
				c1-3.6,3.7-6.9,8-6.9C712.8,490.5,713.9,490.6,715.1,490.9z"/>
			<path class="st11" d="M735.7,491.1h1.4v22.4h-1.4V508c-2,3.6-5.8,6.1-10.3,6.1c-6.4,0-11.7-5.3-11.7-11.8
				c0-6.4,5.2-11.8,11.7-11.8c4.5,0,8.3,2.5,10.3,6.1V491.1z M735.7,502.5c0-6.1-4.7-10.6-10.3-10.6s-10.2,4.7-10.2,10.3
				c0,5.7,4.6,10.4,10.2,10.4S735.7,508.3,735.7,502.5z"/>
			<path class="st11" d="M762.1,500.3v13.2h-1.4v-13.2c0-5.1-3.4-8.4-7.7-8.4c-4.2,0-8.1,2.4-8.3,8.7v12.8h-1.4v-22.4h1.4v4.9
				c1.3-3.9,5-5.5,8.3-5.5C758.1,490.5,762.1,494.3,762.1,500.3z"/>
			<path class="st11" d="M788.1,478.9h1.4v34.6h-1.4V508c-2,3.6-5.8,6.1-10.3,6.1c-6.4,0-11.7-5.3-11.7-11.8
				c0-6.4,5.2-11.8,11.7-11.8c4.5,0,8.3,2.5,10.3,6.1V478.9z M788.1,502.5c0-6.1-4.7-10.6-10.3-10.6s-10.2,4.7-10.2,10.3
				c0,5.7,4.6,10.4,10.2,10.4S788.1,508.3,788.1,502.5z"/>
		</g>
	</g>
	<g>
		<g>
			<path class="st11" d="M438.2,491.1h1.5l-8.4,22.4h-1.5l-8-20.8l-7.8,20.8h-1.5l-8.6-22.4h1.5l7.9,20.4l7.6-20.4h1.8l7.8,20.4
				L438.2,491.1z"/>
			<path class="st11" d="M463.1,502.9h-20.8c0.4,5.8,4.3,9.8,9.8,9.8c3.6,0,6.6-1.8,8.4-4.7l1.2,0.8c-2,3.3-5.6,5.3-9.6,5.3
				c-6.3,0-11.3-4.8-11.3-11.9c0-7.1,5-11.7,11.3-11.7c6.3,0,10.9,4.7,10.9,11.7V502.9z M461.6,501.6c-0.3-5.8-4.2-9.6-9.5-9.6
				c-5.4,0-9.4,3.7-9.8,9.6H461.6z"/>
			<path class="st11" d="M490.7,502.3c0,6.5-5.2,11.8-11.7,11.8c-4.5,0-8.3-2.5-10.3-6.1v5.5h-1.4v-34.6h1.4v17.7
				c2-3.6,5.8-6.1,10.3-6.1C485.4,490.5,490.7,495.8,490.7,502.3z M489.2,502.3c0-5.6-4.6-10.3-10.2-10.3c-5.6,0-10.3,4.4-10.3,10.6
				c0,5.8,4.7,10.1,10.3,10.1C484.6,512.6,489.2,507.9,489.2,502.3z"/>
		</g>
	</g>
</g>
</svg>
