<?xml version="1.0" encoding="utf-8"?>
<!-- Generator: Adobe Illustrator 27.2.0, SVG Export Plug-In . SVG Version: 6.00 Build 0)  -->
<svg version="1.1" id="Layer_1" xmlns="http://www.w3.org/2000/svg" xmlns:xlink="http://www.w3.org/1999/xlink" x="0px" y="0px"
	 viewBox="0 0 768.7 209" style="enable-background:new 0 0 768.7 209;" xml:space="preserve">
<style type="text/css">
	.st0{fill:#EBEBEA;}
	.st1{fill:#FFFFFF;}
	.st2{fill:none;stroke:#26479A;stroke-width:20;stroke-miterlimit:10;}
	.st3{enable-background:new    ;}
	.st4{fill:#2E4695;}
	.st5{fill:#2F4796;stroke:#2F4897;stroke-width:0.25;stroke-miterlimit:10;}
</style>
<g id="Layer_1_00000104667240096900363050000006993238362630129849_">
	<path class="st0" d="M813,701.8h-26.2H149.3h-37.5v37.5V868v113.8v95v15.5c0,20.6,16.9,37.5,37.5,37.5h18.5H813h37.5v-37.5V972.7
		V858.9v-93.1v-26.5C850.5,718.6,833.6,701.8,813,701.8z"/>
	<g>
		<path class="st1" d="M441.7,1150.3l-8.6-26.4h-39.9l-8.4,26.4h-27.7l42.1-113.6h28.2l41.9,113.6H441.7z M400.3,1101.5h25.6
			l-12.9-40.1L400.3,1101.5z"/>
		<path class="st1" d="M557.8,1117.6c0,15.5-10.1,32.7-36.8,32.7h-49.3v-113.6h46c20.8,0,34.1,12.5,34.1,29.4c0,7.9-3,19.8-16,23.6
			C550.9,1091.7,557.8,1104.6,557.8,1117.6z M515.9,1059.2h-18.3v21.8h18.1c6.1,0,10.2-4,10.2-10.9
			C526,1064.4,523,1059.2,515.9,1059.2z M517.9,1127.7c9.2,0,13.9-6.3,13.9-12.7c0-5.9-4.1-12.7-13.9-12.7h-20.3v25.4L517.9,1127.7
			L517.9,1127.7z"/>
		<path class="st1" d="M561.8,1093.4c0-32.2,25.6-58.7,58.1-58.7c32,0,57.9,26.6,57.9,58.7c0,32.2-25.9,58.9-57.9,58.9
			C587.3,1152.3,561.8,1125.6,561.8,1093.4z M651.7,1093.4c0-19-13-34.3-32-34.3c-19.1,0-31.8,15.3-31.8,34.3s12.7,34.5,31.8,34.5
			C638.6,1127.9,651.7,1112.4,651.7,1093.4z"/>
		<path class="st1" d="M687,1109.7v-73.1h25.9v71.1c0,14.4,9.1,20,18.5,20c9.2,0,18.3-5.6,18.3-20v-71.1h25.9v73.1
			c0,26.2-20.8,42.6-44.2,42.6S687,1135.9,687,1109.7z"/>
		<path class="st1" d="M867.6,1036.6v22.6h-30v91.1h-25.9v-91.1h-30v-22.6H867.6z"/>
	</g>
	<path class="st2" d="M0,622.9c28,0,55.9,19,55.9,55.9v101.9V1081v69.3c0,36.9,27.9,55.9,55.9,55.9h795.5"/>
	<path class="st2" d="M111.8,622.9h683.7c28,0,55.9-19,55.9-55.9v-69.3V197.3V95.4c0-36.9,27.9-55.9,55.9-55.9"/>
	
		<text transform="matrix(1 0 0 1 57.9382 509.7532)" class="st0" style="font-family:'SofiaPro-Black'; font-size:163.372px; letter-spacing:-5;">DESIGNER</text>
	<rect x="70.9" y="493" class="st0" width="704.7" height="20.5"/>
	<g id="Layer_2_00000027600682130061629410000007136004143646643601_">
		
			<text transform="matrix(1 0 0 1 312.8732 1013.3446)" class="st1" style="font-family:'SofiaPro-Black'; font-size:164.9534px; letter-spacing:-6;">ABOUT</text>
	</g>
	<polygon class="st0" points="789.6,509.8 789.6,513.5 775.6,513.5 771.8,498.2 	"/>
	<g>
		<text transform="matrix(1 0 0 1 70.9 513.4595)" class="st4" style="font-family:'SofiaPro-UltraLight'; font-size:48px;">graphic</text>
	</g>
	<g>
		<text transform="matrix(1 0 0 1 670.5867 513.4595)" class="st4" style="font-family:'SofiaPro-UltraLight'; font-size:48px;">brand</text>
	</g>
	<g>
		<text transform="matrix(1 0 0 1 402.4978 513.4595)" class="st4" style="font-family:'SofiaPro-UltraLight'; font-size:48px;">web</text>
	</g>
</g>
<g>
	<g class="st3">
		<path class="st0" d="M69.4,237.8c32.5,0,51.3,24.5,51.3,56.5c0,31.9-18.8,56-51.3,56H24.9V237.8H69.4z M69.4,328
			c16.8,0,25.5-16.2,25.5-33.7c0-17.6-8.7-34.1-25.5-34.1H50.6V328H69.4L69.4,328z"/>
		<path class="st0" d="M158.3,328h48v22.4h-73.7V237.8h72.2v22.4h-46.6v23.2h40.9v23h-40.8V328z"/>
		<path class="st0" d="M213.5,317.6h25.6c0,7.2,7.2,12.7,16,12.7c8.3,0,14.7-4.2,14.7-11.6c0-4.4-2.5-8.5-12.4-11.8l-13.4-4.1
			c-24.8-6.7-29.6-21.9-29.6-32.5c0-20.3,17.3-34.5,39.7-34.5c21.6,0,38.1,12.9,38.1,34.8h-25.6c0-6.7-4.1-12.4-12.9-12.4
			c-8,0-13.2,5.4-13.2,11.6c0,2.3,0.7,7.4,11.1,10.3l11.8,3.8c16,4.9,32.3,13.1,32.3,33.5c0,24.2-20.9,35-41.5,35
			C230.1,352.4,213.5,338.3,213.5,317.6z"/>
		<path class="st0" d="M307.4,350.4V237.8h25.7v112.6H307.4L307.4,350.4z"/>
		<path class="st0" d="M344.7,294.2c0-32,25.3-58.3,57.8-58.3c17.8,0,33.3,7.5,43.1,19.3l-19,15.8c-6-7-14.5-11.3-24.2-11.3
			c-18.1,0-32,15.7-32,34.5c0,18.5,13.6,35.3,32.8,35.3c12.6,0,26.5-7,26.5-18.1h-31.6v-20.8h59.6c0,42.6-23.7,61.8-53.8,61.8
			C369.3,352.4,344.7,325.9,344.7,294.2z"/>
		<path class="st0" d="M526.8,237.8h25.6v112.6h-22.5L493,285.7v64.7h-25.7V237.8h23.5l35.9,63.9L526.8,237.8L526.8,237.8z"/>
		<path class="st0" d="M596.1,328h48v22.4h-73.7V237.8h72.2v22.4h-46.5v23.2h40.8v23h-40.8V328z"/>
		<path class="st0" d="M713.9,350.4l-25.8-39.5h-5.2v39.5h-25.7V237.8h46.1c26.1,0,37.9,18.6,37.9,37.2c0,15.8-11.8,31-26.3,34.3
			l28.9,41L713.9,350.4L713.9,350.4z M682.8,260.2v30.4h16.3c11.3,0,16.2-7.4,16.2-14.9s-5.1-15.5-15.5-15.5H682.8z"/>
	</g>
	<rect x="25" y="333.6" class="st0" width="704.7" height="20.5"/>
	<polygon class="st0" points="743.7,350.4 743.7,354.1 729.7,354.1 725.9,338.9 	"/>
	<g>
		<g>
			<path class="st4" d="M49.4,331.7h1.4v19.4c0,11.2-4.9,14.4-12,14.4c-3.5,0-6.9-1.5-9.2-4.8l1.2-0.8c2,2.8,5,4.1,8,4.1
				c6.2,0,10.6-2.8,10.6-13v-2.4c-2,3.6-5.8,6.1-10.3,6.1c-6.4,0-11.7-5.3-11.7-11.8c0-6.4,5.2-11.8,11.7-11.8
				c4.5,0,8.3,2.5,10.3,6.1V331.7z M49.4,343.1c0-6.1-4.7-10.6-10.3-10.6s-10.2,4.7-10.2,10.3c0,5.7,4.6,10.4,10.2,10.4
				C44.8,353.2,49.4,348.9,49.4,343.1z"/>
			<path class="st4" d="M69.5,331.5l-0.4,1.4c-1.1-0.3-2-0.4-2.7-0.4c-6.6,0-7.9,7.8-8,12.7v8.8H57v-22.4h1.4v6.3
				c1-3.6,3.7-6.9,8-6.9C67.2,331.1,68.3,331.2,69.5,331.5z"/>
			<path class="st4" d="M90.1,331.7h1.4v22.4h-1.4v-5.5c-2,3.6-5.8,6.1-10.3,6.1c-6.4,0-11.7-5.3-11.7-11.8
				c0-6.4,5.2-11.8,11.7-11.8c4.5,0,8.3,2.5,10.3,6.1V331.7z M90.1,343.1c0-6.1-4.7-10.6-10.3-10.6c-5.6,0-10.2,4.7-10.2,10.3
				c0,5.7,4.6,10.4,10.2,10.4C85.5,353.2,90.1,348.9,90.1,343.1z"/>
			<path class="st4" d="M121,342.9c0,6.4-5.2,11.8-11.7,11.8c-4.5,0-8.3-2.5-10.3-6.1V365h-1.4v-33.3H99v5.5c2-3.6,5.8-6.1,10.3-6.1
				C115.8,331.1,121,336.4,121,342.9z M119.6,342.9c0-5.7-4.6-10.4-10.2-10.4s-10.3,4.3-10.3,10.1c0,6.1,4.7,10.6,10.3,10.6
				C115,353.2,119.6,348.5,119.6,342.9z"/>
			<path class="st4" d="M144.3,340.9v13.2h-1.4v-13.2c0-5.1-3.4-8.4-7.7-8.4c-4.2,0-8.1,2.4-8.3,8.7V354h-1.4v-34.6h1.4v17.2
				c1.3-3.9,5-5.5,8.3-5.5C140.3,331.1,144.3,334.9,144.3,340.9z"/>
			<path class="st4" d="M149.2,323.4c0-0.8,0.7-1.4,1.5-1.4c0.9,0,1.5,0.6,1.5,1.4c0,0.8-0.7,1.3-1.5,1.3
				C149.9,324.8,149.2,324.2,149.2,323.4z M150,354.1v-22.4h1.4v22.4H150z"/>
			<path class="st4" d="M155.8,342.8c0-7.1,5.3-11.7,11.7-11.7c2.7,0,5.3,1,7.3,2.4l-0.8,1.2c-1.8-1.2-4.1-2.1-6.5-2.1
				c-5.6,0-10.2,4.1-10.2,10.3c0,6.2,4.6,10.4,10.2,10.4c2.4,0,4.7-0.8,6.5-2.1l0.9,1.2c-2.1,1.5-4.6,2.4-7.3,2.4
				C161.1,354.7,155.8,349.9,155.8,342.8z"/>
		</g>
	</g>
	<g>
		<g>
			<path class="st4" d="M652.2,342.9c0,6.5-5.2,11.8-11.7,11.8c-4.5,0-8.3-2.5-10.3-6.1v5.5h-1.4v-34.6h1.4v17.7
				c2-3.6,5.8-6.1,10.3-6.1C647,331.1,652.2,336.4,652.2,342.9z M650.8,342.9c0-5.6-4.6-10.3-10.2-10.3c-5.6,0-10.3,4.4-10.3,10.6
				c0,5.8,4.7,10.1,10.3,10.1C646.2,353.2,650.8,348.5,650.8,342.9z"/>
			<path class="st4" d="M669.2,331.5l-0.4,1.4c-1.1-0.3-2-0.4-2.7-0.4c-6.6,0-7.9,7.8-8,12.7v8.8h-1.4v-22.4h1.4v6.3
				c1-3.6,3.7-6.9,8-6.9C666.9,331.1,668,331.2,669.2,331.5z"/>
			<path class="st4" d="M689.8,331.7h1.4v22.4h-1.4v-5.5c-2,3.6-5.8,6.1-10.3,6.1c-6.4,0-11.7-5.3-11.7-11.8
				c0-6.4,5.2-11.8,11.7-11.8c4.5,0,8.3,2.5,10.3,6.1V331.7z M689.8,343.1c0-6.1-4.7-10.6-10.3-10.6s-10.2,4.7-10.2,10.3
				c0,5.7,4.6,10.4,10.2,10.4S689.8,348.9,689.8,343.1z"/>
			<path class="st4" d="M716.2,340.9v13.2h-1.4v-13.2c0-5.1-3.4-8.4-7.7-8.4c-4.2,0-8.1,2.4-8.3,8.7V354h-1.4v-22.4h1.4v4.9
				c1.3-3.9,5-5.5,8.3-5.5C712.2,331.1,716.2,334.9,716.2,340.9z"/>
			<path class="st4" d="M742.2,319.5h1.4v34.6h-1.4v-5.5c-2,3.6-5.8,6.1-10.3,6.1c-6.4,0-11.7-5.3-11.7-11.8
				c0-6.4,5.2-11.8,11.7-11.8c4.5,0,8.3,2.5,10.3,6.1V319.5z M742.2,343.1c0-6.1-4.7-10.6-10.3-10.6s-10.2,4.7-10.2,10.3
				c0,5.7,4.6,10.4,10.2,10.4S742.2,348.9,742.2,343.1z"/>
		</g>
	</g>
	<g>
		<g>
			<path class="st4" d="M392.3,331.7h1.5l-8.4,22.4h-1.5l-8-20.8l-7.8,20.8h-1.5l-8.6-22.4h1.5l7.9,20.4l7.6-20.4h1.8l7.8,20.4
				L392.3,331.7z"/>
			<path class="st4" d="M417.2,343.5h-20.8c0.4,5.8,4.3,9.8,9.8,9.8c3.6,0,6.6-1.8,8.4-4.7l1.2,0.8c-2,3.3-5.6,5.3-9.6,5.3
				c-6.3,0-11.3-4.8-11.3-11.9c0-7.1,5-11.7,11.3-11.7s10.9,4.7,10.9,11.7v0.7H417.2L417.2,343.5z M415.7,342.2
				c-0.3-5.8-4.2-9.6-9.5-9.6c-5.4,0-9.4,3.7-9.8,9.6H415.7z"/>
			<path class="st4" d="M444.8,342.9c0,6.5-5.2,11.8-11.7,11.8c-4.5,0-8.3-2.5-10.3-6.1v5.5h-1.4v-34.6h1.4v17.7
				c2-3.6,5.8-6.1,10.3-6.1C439.5,331.1,444.8,336.4,444.8,342.9z M443.3,342.9c0-5.6-4.6-10.3-10.2-10.3s-10.3,4.4-10.3,10.6
				c0,5.8,4.7,10.1,10.3,10.1C438.7,353.2,443.3,348.5,443.3,342.9z"/>
		</g>
	</g>
</g>
<g>
	<g id="Layer_2_00000055708328275367571710000009479771166177285261_">
		<g class="st3">
			<path class="st0" d="M131,140.8l-26.9-41.4h-5.4v41.4H71.9V23h48.2c27.4,0,39.5,19.4,39.5,39c0,16.6-12.4,32.5-27.6,36l30.2,43
				H131V140.8z M98.6,46.4v31.8h17.1c11.7,0,16.8-7.7,16.8-15.4c0-7.9-5.4-16.4-16.4-16.4H98.6z"/>
			<path class="st0" d="M201.4,117.4h50.3v23.4h-77.1V23H250v23.4h-48.6v24.3H244v24.1h-42.5V117.4L201.4,117.4z"/>
			<path class="st0" d="M260.6,106.4h26.9c0,7.5,7.5,13.3,16.6,13.3c8.6,0,15.4-4.4,15.4-12.2c0-4.4-2.6-8.9-13.1-12.4l-14-4.2
				c-25.9-7-30.9-22.9-30.9-33.9c0-21.3,18.2-36,41.4-36c22.7,0,39.7,13.6,39.7,36.2H316c0-7-4.2-13.1-13.6-13.1
				c-8.4,0-13.8,5.6-13.8,12.2c0,2.3,0.7,7.7,11.7,10.8l12.4,4c16.6,5.1,33.9,13.6,33.9,35.1c0,25.2-21.7,36.5-43.5,36.5
				C278.1,142.7,260.6,127.9,260.6,106.4z"/>
			<path class="st0" d="M359,98.7V23h26.9v73.6c0,14.7,9.4,20.6,19.2,20.6c9.6,0,18.9-5.8,18.9-20.6V23h26.7v75.5
				c0,27.1-21.5,44.2-45.8,44.2C380.5,142.7,359,125.8,359,98.7z"/>
			<path class="st0" d="M606.1,140.8h-27.6l-7.7-66.9l-25.7,53.5h-20.6l-25.7-53.3l-7.9,66.9h-27.6l14.5-117.6h22.4l34.4,73.6
				l33.9-73.6h22.9L606.1,140.8z"/>
			<path class="st0" d="M646.8,117.4H697v23.4h-77.1V23h75.5v23.4h-48.6v24.3h42.5v24.1h-42.5V117.4z"/>
		</g>
	</g>
	<g>
		<g>
			<g class="st3">
				<path class="st5" d="M71.7,177.7c0-4.4,3.5-8.4,7.9-8.4c4.4,0,8.2,3.7,8.2,8.4c0,4.4-3.5,8.4-8.2,8.4
					C75.4,186.2,71.7,182.4,71.7,177.7z M87.3,177.7c0-4.2-3.3-7.7-7.5-7.7c-4.2,0-7.5,3.5-7.5,7.7s3.3,7.7,7.5,7.7
					C84.1,185.2,87.3,181.9,87.3,177.7z"/>
				<path class="st5" d="M100.4,174.7h0.7v11h-0.7v-2.6c-0.9,1.9-2.8,3-4.9,3c-3,0-5.6-2.6-5.6-5.6c0-3,2.6-5.6,5.6-5.6
					c2.1,0,4.2,1.2,4.9,3V174.7z M100.4,180.5c0-3-2.3-5.1-4.9-5.1c-2.8,0-4.9,2.3-4.9,4.9c0,2.8,2.1,5.1,4.9,5.1
					C98.1,185.2,100.4,183.3,100.4,180.5z"/>
				<path class="st5" d="M112.1,185.7h-0.9l-6.3-6.1v6.1h-0.7v-16.8h0.7v10.8l4.4-4.7h0.9l-4.7,4.9L112.1,185.7z"/>
				<path class="st5" d="M122.2,168.9h0.7v16.8h-0.7v-2.6c-0.9,1.9-2.8,3-4.9,3c-3,0-5.6-2.6-5.6-5.6c0-3,2.6-5.6,5.6-5.6
					c2.1,0,4.2,1.2,4.9,3V168.9z M122.2,180.5c0-3-2.3-5.1-4.9-5.1c-2.8,0-4.9,2.3-4.9,4.9c0,2.8,2.1,5.1,4.9,5.1
					C120.1,185.2,122.2,183.3,122.2,180.5z"/>
				<path class="st5" d="M136,174.7h0.7v11H136v-2.6c-0.9,1.9-2.8,3-4.9,3c-3,0-5.6-2.6-5.6-5.6c0-3,2.6-5.6,5.6-5.6
					c2.1,0,4.2,1.2,4.9,3V174.7z M136,180.5c0-3-2.3-5.1-4.9-5.1c-2.8,0-4.9,2.3-4.9,4.9c0,2.8,2.1,5.1,4.9,5.1
					C133.9,185.2,136,183.3,136,180.5z"/>
				<path class="st5" d="M139.9,185.7v-16.8h0.7v16.8H139.9z"/>
				<path class="st5" d="M153.7,180.5h-10.1c0.2,2.8,2.1,4.9,4.9,4.9c1.9,0,3.3-0.9,4.2-2.3l0.7,0.5c-0.9,1.6-2.8,2.6-4.7,2.6
					c-3,0-5.6-2.3-5.6-5.8s2.6-5.6,5.6-5.6c3,0,5.4,2.3,5.4,5.6v0.2H153.7z M153,179.8c-0.2-2.8-2.1-4.7-4.7-4.7s-4.4,1.9-4.9,4.7
					H153z"/>
				<path class="st5" d="M153.7,189.9c1.2-1.9,1.9-4.4,1.9-6.8h0.7c0,2.6-0.7,5.4-2.1,7.2L153.7,189.9z"/>
				<path class="st5" d="M171.3,169.6c3.3,0,4.4,2.3,4.4,4.7c0,2.3-1.2,4.7-4.4,4.7h-5.4v6.5h-0.7v-16.1L171.3,169.6L171.3,169.6z
					 M171.3,178.4c2.8,0,3.7-1.9,3.7-4.2c0-2.1-0.9-4.2-3.7-4.2h-5.6v7.9L171.3,178.4L171.3,178.4z"/>
				<path class="st5" d="M187.4,185.7l-1.9-4.4h-8.2l-1.9,4.4h-0.7l6.1-16.1h0.7l6.1,16.1H187.4z M178,180.5h7.7l-3.7-10.1
					L178,180.5z"/>
				<path class="st5" d="M197.2,170L197.2,170v15.9h-0.7v-14.7l-3.5,1.6v-0.7L197.2,170z"/>
				<path class="st5" d="M210.1,181c0,3-2.1,4.9-5.1,4.9c-2.1,0-4.2-1.2-5.1-3l0.7-0.2c0.9,1.4,2.6,2.6,4.4,2.6
					c2.6,0,4.4-1.9,4.4-4.2s-1.9-4-4.2-4c-1.4,0-3,0.5-4.4,1.2l-0.2-0.5l1.4-7.7h7.2v0.7h-6.5l-1.2,6.5c1.4-0.7,2.8-0.9,4.2-0.9
					C208.2,176.3,210.1,178.2,210.1,181z"/>
				<path class="st5" d="M212.2,178c0-4.4,1.2-7.9,5.4-7.9c4.2,0,5.4,3.5,5.4,7.9s-0.9,7.9-5.4,7.9
					C213.3,186.2,212.2,182.4,212.2,178z M222.2,178c0-4.2-0.9-7.2-4.7-7.2c-3.7,0-4.7,3.3-4.7,7.2c0,4,0.9,7.2,4.7,7.2
					C221.3,185.2,222.2,182.2,222.2,178z"/>
				<path class="st5" d="M224.3,170.3h9.6v0.2l-8.4,15.4h-0.7l8.2-14.7h-8.4L224.3,170.3L224.3,170.3z"/>
				<path class="st5" d="M238.1,170L238.1,170v15.9h-0.7v-14.7l-3.5,1.6v-0.7L238.1,170z"/>
			</g>
		</g>
	</g>
	<g>
		<g>
			<g class="st3">
				<path class="st5" d="M577.8,181.2c0,2.6-2.3,4.9-5.4,4.9s-5.4-2.1-5.4-4.9c0-2.1,1.4-3.7,3.5-4.4c-1.4-0.7-2.1-1.9-2.1-3.3
					c0-2.1,1.6-3.5,4-3.5s4,1.6,4,3.5c0,1.4-0.9,2.6-2.1,3.3C576.4,177.5,577.8,179.1,577.8,181.2z M577.1,181.2
					c0-2.1-1.9-4.2-4.7-4.2s-4.4,1.9-4.4,4.2s1.9,4.2,4.4,4.2C575,185.5,577.1,183.6,577.1,181.2z M572.4,176.6c1.9,0,3.3-1.4,3.3-3
					c0-1.6-1.4-3-3.3-3c-1.9,0-3.3,1.4-3.3,3C569.2,175.2,570.6,176.3,572.4,176.6z"/>
				<path class="st5" d="M590.2,181.7v0.7h-2.6v3.3h-0.7v-3.3h-8.4v-0.2l8.9-11.9h0.2v11.5L590.2,181.7L590.2,181.7z M579.9,181.7
					h7.2v-9.8L579.9,181.7z"/>
				<path class="st5" d="M601.7,181c0,3-2.1,4.9-5.1,4.9c-2.1,0-4.2-1.2-5.1-3l0.7-0.2c0.9,1.4,2.6,2.6,4.4,2.6
					c2.6,0,4.4-1.9,4.4-4.2s-1.9-4-4.2-4c-1.4,0-3,0.5-4.4,1.2l-0.2-0.5l1.4-7.7h7.2v0.7h-6.5l-1.2,6.5c1.4-0.7,2.8-0.9,4.2-0.9
					C599.5,176.3,601.7,178.2,601.7,181z"/>
				<path class="st5" d="M619.2,181c0,2.1-1.4,5.1-5.1,5.1c-3.3,0-5.1-2.1-5.1-6.1c0-3,0-10.1,5.6-10.1c1.9,0,3.3,0.7,4.2,2.6
					l-0.7,0.2c-0.7-1.9-2.1-2.3-3.7-2.3c-4.2,0-4.9,4.4-4.9,7.7c0.7-1.6,3-2.1,4.4-2.1C617.1,176.1,619.2,178.2,619.2,181z
					 M618.5,181c0-2.1-1.9-4.2-4.2-4.2c-1.6,0-4.4,0.7-4.4,3.5c0,3.5,2.1,4.9,4.4,4.9C616.8,185.2,618.5,183.3,618.5,181z"/>
				<path class="st5" d="M631.6,181.7v0.7H629v3.3h-0.7v-3.3h-8.4v-0.2l8.9-11.9h0.2v11.5L631.6,181.7L631.6,181.7z M621.3,181.7
					h7.2v-9.8L621.3,181.7z"/>
				<path class="st5" d="M637.4,186.2c-1.9,0-3.3-0.7-4.2-2.6l0.7-0.2c0.7,1.9,2.1,2.3,3.7,2.3c4.2,0,4.9-4.7,4.9-7.7
					c-0.7,1.6-3,2.1-4.4,2.1c-3,0-4.9-2.1-4.9-4.9c0-2.1,1.4-4.9,5.1-4.9c3.3,0,5.1,2.1,5.1,6.1
					C643.3,178.9,643.3,186.2,637.4,186.2z M642.6,175.6c0-3.5-2.1-4.9-4.4-4.9c-2.8,0-4.4,2.1-4.4,4.4c0,2.1,1.9,4.2,4.2,4.2
					C639.5,179.1,642.3,178.4,642.6,175.6z"/>
				<path class="st5" d="M660.6,181.5c0,2.6-2.3,4.4-5.4,4.4c-2.1,0-4-1.2-4.9-3l0.7-0.2c0.7,1.4,2.3,2.6,4.2,2.6
					c2.8,0,4.9-1.6,4.9-3.7s-1.9-3.7-4-3.7h-1.6V177h1.6c1.9,0,3-1.2,3-3s-1.4-3.3-3.7-3.3c-1.4,0-3,0.7-3.5,1.9l-0.7-0.2
					c0.7-1.4,2.3-2.1,4.2-2.1c2.8,0,4.4,1.6,4.4,4c0,1.4-0.9,2.8-2.1,3.3C659.2,177.7,660.6,179.4,660.6,181.5z"/>
				<path class="st5" d="M673,181c0,2.1-1.4,5.1-5.1,5.1c-3.3,0-5.1-2.1-5.1-6.1c0-3,0-10.1,5.6-10.1c1.9,0,3.3,0.7,4.2,2.6
					l-0.7,0.2c-0.7-1.9-2.1-2.3-3.7-2.3c-4.2,0-4.9,4.4-4.9,7.7c0.7-1.6,3-2.1,4.4-2.1C670.9,176.1,673,178.2,673,181z M672.3,181
					c0-2.1-1.9-4.2-4.2-4.2c-1.6,0-4.4,0.7-4.4,3.5c0,3.5,2.1,4.9,4.4,4.9S672.3,183.3,672.3,181z"/>
				<path class="st5" d="M685.3,181.2c0,2.6-2.3,4.9-5.4,4.9c-3,0-5.4-2.1-5.4-4.9c0-2.1,1.4-3.7,3.5-4.4c-1.4-0.7-2.1-1.9-2.1-3.3
					c0-2.1,1.6-3.5,4-3.5c2.3,0,4,1.6,4,3.5c0,1.4-0.9,2.6-2.1,3.3C683.9,177.5,685.3,179.1,685.3,181.2z M684.6,181.2
					c0-2.1-1.9-4.2-4.7-4.2s-4.4,1.9-4.4,4.2s1.9,4.2,4.4,4.2S684.6,183.6,684.6,181.2z M680,176.6c1.9,0,3.3-1.4,3.3-3
					c0-1.6-1.4-3-3.3-3s-3.3,1.4-3.3,3C676.7,175.2,678.1,176.3,680,176.6z"/>
				<path class="st5" d="M697,181.5c0,2.6-2.3,4.4-5.4,4.4c-2.1,0-4-1.2-4.9-3l0.7-0.2c0.7,1.4,2.3,2.6,4.2,2.6
					c2.8,0,4.9-1.6,4.9-3.7s-1.9-3.7-4-3.7H691V177h1.6c1.9,0,3-1.2,3-3s-1.4-3.3-3.7-3.3c-1.4,0-3,0.7-3.5,1.9l-0.7-0.2
					c0.7-1.4,2.3-2.1,4.2-2.1c2.8,0,4.4,1.6,4.4,4c0,1.4-0.9,2.8-2.1,3.3C695.6,177.7,697,179.4,697,181.5z"/>
			</g>
		</g>
	</g>
	<g>
		<g>
			<g class="st3">
				<path class="st5" d="M299.4,180.3c0,3.3-2.6,5.6-5.6,5.6c-2.1,0-4.2-1.2-4.9-3v2.6h-0.7v-16.6h0.7v8.6c0.9-1.9,2.8-3,4.9-3
					C297,174.7,299.4,177,299.4,180.3z M298.7,180.3c0-2.8-2.1-4.9-4.9-4.9c-2.8,0-4.9,2.1-4.9,5.1c0,2.8,2.3,4.9,4.9,4.9
					C296.6,185.2,298.7,183.1,298.7,180.3z"/>
				<path class="st5" d="M308,174.7l-0.2,0.7c-0.7-0.2-0.9-0.2-1.4-0.2c-3.3,0-3.7,3.7-4,6.1v4.2h-0.7v-11h0.7v3
					c0.5-1.9,1.9-3.3,4-3.3C306.9,174.7,307.3,174.7,308,174.7z"/>
				<path class="st5" d="M308.7,170.7c0-0.5,0.2-0.7,0.7-0.7s0.7,0.2,0.7,0.7c0,0.5-0.2,0.7-0.7,0.7
					C309.2,171.4,308.7,171.2,308.7,170.7z M309.2,185.7v-11h0.7v11H309.2z"/>
				<path class="st5" d="M309.4,191.1v-0.7h0.7c2.1,0,3-1.9,3-4v-11.7h0.7v11.7c0,2.6-0.9,4.4-3.7,4.4L309.4,191.1L309.4,191.1z
					 M312.7,170.7c0-0.5,0.2-0.7,0.7-0.7c0.5,0,0.7,0.2,0.7,0.7c0,0.5-0.2,0.7-0.7,0.7C312.9,171.4,312.7,171.2,312.7,170.7z"/>
				<path class="st5" d="M334.7,179.4v6.5H334v-6.5c0-2.6-1.6-4.2-3.7-4.2c-2.1,0-4.2,1.2-4.2,4.9v5.6h-0.7v-6.5
					c0-2.6-1.6-4.2-3.7-4.2c-2.1,0-4,1.2-4.2,4.2v6.3h-0.7v-11h0.7v2.3c0.7-1.9,2.3-2.6,4.2-2.6c2.1,0,3.7,1.2,4.2,3.3
					c0.7-2.6,2.8-3.3,4.4-3.3C332.8,174.7,334.7,176.3,334.7,179.4z"/>
				<path class="st5" d="M347.8,180.5h-10.1c0.2,2.8,2.1,4.9,4.9,4.9c1.9,0,3.3-0.9,4.2-2.3l0.7,0.5c-0.9,1.6-2.8,2.6-4.7,2.6
					c-3,0-5.6-2.3-5.6-5.8s2.6-5.6,5.6-5.6c3,0,5.4,2.3,5.4,5.6v0.2H347.8z M347.1,179.8c-0.2-2.8-2.1-4.7-4.7-4.7
					c-2.6,0-4.4,1.9-4.9,4.7H347.1z"/>
				<path class="st5" d="M359.7,168.9h0.7v16.8h-0.7v-2.6c-0.9,1.9-2.8,3-4.9,3c-3,0-5.6-2.6-5.6-5.6c0-3,2.6-5.6,5.6-5.6
					c2.1,0,4.2,1.2,4.9,3V168.9z M359.7,180.5c0-3-2.3-5.1-4.9-5.1c-2.8,0-4.9,2.3-4.9,4.9c0,2.8,2.1,5.1,4.9,5.1
					C357.6,185.2,359.7,183.3,359.7,180.5z"/>
				<path class="st5" d="M363.2,170.7c0-0.5,0.2-0.7,0.7-0.7c0.5,0,0.7,0.2,0.7,0.7c0,0.5-0.2,0.7-0.7,0.7
					C363.7,171.4,363.2,171.2,363.2,170.7z M363.7,185.7v-11h0.7v11H363.7z"/>
				<path class="st5" d="M376.8,179.4v6.5h-0.7v-6.5c0-2.6-1.6-4.2-3.7-4.2c-2.1,0-4,1.2-4.2,4.2v6.3h-0.7v-11h0.7v2.3
					c0.7-1.9,2.6-2.6,4.2-2.6C374.6,174.7,376.8,176.3,376.8,179.4z"/>
				<path class="st5" d="M389.6,174.7h0.7v11h-0.7v-2.6c-0.9,1.9-2.8,3-4.9,3c-3,0-5.6-2.6-5.6-5.6c0-3,2.6-5.6,5.6-5.6
					c2.1,0,4.2,1.2,4.9,3V174.7z M389.6,180.5c0-3-2.3-5.1-4.9-5.1c-2.8,0-4.9,2.3-4.9,4.9c0,2.8,2.1,5.1,4.9,5.1
					C387.3,185.2,389.6,183.3,389.6,180.5z"/>
				<path class="st5" d="M403.2,190.4c-5.8,0-10.5-4.7-10.5-10.5s4.4-10.5,10.5-10.5c5.8,0,10.8,4.2,10.8,10.1
					c0,2.8-0.9,6.5-4.2,6.5c-1.4,0-3-0.7-3-3v-3.3c0-2.1-1.9-4-4-4s-4,1.9-4,4s1.9,4,4,4c0.7,0,1.9-0.2,2.3-0.7v0.7
					c-0.7,0.5-1.4,0.7-2.3,0.7c-2.6,0-4.4-2.1-4.4-4.4c0-2.6,2.1-4.4,4.4-4.4c2.6,0,4.4,2.1,4.4,4.4v3.3c0,1.9,1.2,2.3,2.3,2.3
					c2.6,0,3.5-3.5,3.5-5.8c0-5.4-4.7-9.4-10.1-9.4c-5.4,0-9.6,4.4-9.6,9.8s4.2,9.8,9.6,9.8h0.7v0.7L403.2,190.4L403.2,190.4z"/>
				<path class="st5" d="M426.8,174.7h0.7v9.6c0,5.4-2.3,7-5.8,7c-1.9,0-3.3-0.7-4.4-2.3l0.7-0.5c0.9,1.4,2.6,2.1,4,2.1
					c3,0,5.1-1.4,5.1-6.3v-1.2c-0.9,1.9-2.8,3-4.9,3c-3,0-5.6-2.6-5.6-5.6c0-3,2.6-5.6,5.6-5.6c2.1,0,4.2,1.2,4.9,3v-3.3H426.8z
					 M426.8,180.5c0-3-2.3-5.1-4.9-5.1c-2.8,0-4.9,2.3-4.9,4.9c0,2.8,2.1,5.1,4.9,5.1C424.4,185.2,426.8,183.3,426.8,180.5z"/>
				<path class="st5" d="M448.3,179.4v6.5h-0.7v-6.5c0-2.6-1.6-4.2-3.7-4.2s-4.2,1.2-4.2,4.9v5.6h-0.7v-6.5c0-2.6-1.6-4.2-3.7-4.2
					c-2.1,0-4,1.2-4.2,4.2v6.3h-0.7v-11h0.7v2.3c0.7-1.9,2.3-2.6,4.2-2.6c2.1,0,3.7,1.2,4.2,3.3c0.7-2.6,2.8-3.3,4.4-3.3
					C446.4,174.7,448.3,176.3,448.3,179.4z"/>
				<path class="st5" d="M461.1,174.7h0.7v11h-0.7v-2.6c-0.9,1.9-2.8,3-4.9,3c-3,0-5.6-2.6-5.6-5.6c0-3,2.6-5.6,5.6-5.6
					c2.1,0,4.2,1.2,4.9,3V174.7z M461.1,180.5c0-3-2.3-5.1-4.9-5.1c-2.8,0-4.9,2.3-4.9,4.9c0,2.8,2.1,5.1,4.9,5.1
					C458.8,185.2,461.1,183.3,461.1,180.5z"/>
				<path class="st5" d="M464.7,170.7c0-0.5,0.2-0.7,0.7-0.7s0.7,0.2,0.7,0.7c0,0.5-0.2,0.7-0.7,0.7
					C465.1,171.4,464.7,171.2,464.7,170.7z M465.1,185.7v-11h0.7v11H465.1z"/>
				<path class="st5" d="M468.9,185.7v-16.8h0.7v16.8H468.9z"/>
				<path class="st5" d="M472.4,185.2c0-0.5,0.2-0.7,0.7-0.7c0.5,0,0.7,0.2,0.7,0.7s-0.2,0.7-0.7,0.7
					C472.8,186.2,472.4,185.7,472.4,185.2z"/>
				<path class="st5" d="M475.4,180.3c0-3.5,2.6-5.6,5.6-5.6c1.4,0,2.6,0.5,3.5,1.2l-0.5,0.7c-0.9-0.7-2.1-0.9-3.3-0.9
					c-2.8,0-4.9,2.1-4.9,4.9c0,3,2.1,5.1,4.9,5.1c1.2,0,2.3-0.5,3.3-0.9l0.5,0.7c-0.9,0.7-2.1,1.2-3.5,1.2
					C478,186.2,475.4,183.8,475.4,180.3z"/>
				<path class="st5" d="M485.7,180.3c0-3.5,2.6-5.6,5.6-5.6c3,0,5.6,2.1,5.6,5.6s-2.6,5.8-5.6,5.8
					C488.3,186.2,485.7,183.8,485.7,180.3z M496.4,180.3c0-3-2.3-4.9-4.9-4.9c-2.8,0-4.9,1.9-4.9,4.9s2.1,5.1,4.9,5.1
					C494.1,185.2,496.4,183.3,496.4,180.3z"/>
				<path class="st5" d="M517.3,179.4v6.5h-0.7v-6.5c0-2.6-1.6-4.2-3.7-4.2c-2.1,0-4.2,1.2-4.2,4.9v5.6h-0.7v-6.5
					c0-2.6-1.6-4.2-3.7-4.2c-2.1,0-4,1.2-4.2,4.2v6.3h-0.7v-11h0.7v2.3c0.7-1.9,2.3-2.6,4.2-2.6c2.1,0,3.7,1.2,4.2,3.3
					c0.7-2.6,2.8-3.3,4.4-3.3C515.2,174.7,517.3,176.3,517.3,179.4z"/>
			</g>
		</g>
	</g>
</g>
</svg>
