<?xml version="1.0" encoding="utf-8"?>
<!-- Generator: Adobe Illustrator 27.2.0, SVG Export Plug-In . SVG Version: 6.00 Build 0)  -->
<svg version="1.1" id="Layer_1" xmlns="http://www.w3.org/2000/svg" xmlns:xlink="http://www.w3.org/1999/xlink" x="0px" y="0px"
	 viewBox="0 0 768.7 174.9" style="enable-background:new 0 0 768.7 174.9;" xml:space="preserve">
<style type="text/css">
	.st0{display:none;}
	.st1{display:inline;fill:#EBEBEA;}
	.st2{display:inline;}
	.st3{fill:#FFFFFF;}
	.st4{display:inline;fill:none;stroke:#26479A;stroke-width:20;stroke-miterlimit:10;}
	.st5{enable-background:new    ;}
	.st6{fill:#EBEBEA;}
	.st7{fill:#2E4695;}
</style>
<g id="Layer_1_00000104667240096900363050000006993238362630129849_" class="st0">
	<path class="st1" d="M813,701.8h-26.2H149.3h-37.5v37.5V868v113.8v95v15.5c0,20.6,16.9,37.5,37.5,37.5h18.5H813h37.5v-37.5V972.7
		V858.9v-93.1v-26.5C850.5,718.6,833.6,701.8,813,701.8z"/>
	<g class="st2">
		<path class="st3" d="M441.7,1150.3l-8.6-26.4h-39.9l-8.4,26.4h-27.7l42.1-113.6h28.2l41.9,113.6H441.7z M400.3,1101.5h25.6
			l-12.9-40.1L400.3,1101.5z"/>
		<path class="st3" d="M557.8,1117.6c0,15.5-10.1,32.7-36.8,32.7h-49.3v-113.6h46c20.8,0,34.1,12.5,34.1,29.4c0,7.9-3,19.8-16,23.6
			C550.9,1091.7,557.8,1104.6,557.8,1117.6z M515.9,1059.2h-18.3v21.8h18.1c6.1,0,10.2-4,10.2-10.9
			C526,1064.4,523,1059.2,515.9,1059.2z M517.9,1127.7c9.2,0,13.9-6.3,13.9-12.7c0-5.9-4.1-12.7-13.9-12.7h-20.3v25.4L517.9,1127.7
			L517.9,1127.7z"/>
		<path class="st3" d="M561.8,1093.4c0-32.2,25.6-58.7,58.1-58.7c32,0,57.9,26.6,57.9,58.7c0,32.2-25.9,58.9-57.9,58.9
			C587.3,1152.3,561.8,1125.6,561.8,1093.4z M651.7,1093.4c0-19-13-34.3-32-34.3c-19.1,0-31.8,15.3-31.8,34.3s12.7,34.5,31.8,34.5
			C638.6,1127.9,651.7,1112.4,651.7,1093.4z"/>
		<path class="st3" d="M687,1109.7v-73.1h25.9v71.1c0,14.4,9.1,20,18.5,20c9.2,0,18.3-5.6,18.3-20v-71.1h25.9v73.1
			c0,26.2-20.8,42.6-44.2,42.6S687,1135.9,687,1109.7z"/>
		<path class="st3" d="M867.6,1036.6v22.6h-30v91.1h-25.9v-91.1h-30v-22.6H867.6z"/>
	</g>
	<path class="st4" d="M0,622.9c28,0,55.9,19,55.9,55.9v101.9V1081v69.3c0,36.9,27.9,55.9,55.9,55.9h795.5"/>
	<path class="st4" d="M111.8,622.9h683.7c28,0,55.9-19,55.9-55.9v-69.3V197.3V95.4c0-36.9,27.9-55.9,55.9-55.9"/>
	
		<text transform="matrix(1 0 0 1 57.9382 509.7532)" class="st1" style="font-family:'SofiaPro-Black'; font-size:163.372px; letter-spacing:-6;">DESIGNER</text>
	<rect x="70.9" y="493" class="st1" width="704.7" height="20.5"/>
	<g id="Layer_2_00000027600682130061629410000007136004143646643601_" class="st2">
		
			<text transform="matrix(1 0 0 1 312.8732 1013.3446)" class="st3" style="font-family:'SofiaPro-Black'; font-size:164.9534px; letter-spacing:-7;">ABOUT</text>
	</g>
	<polygon class="st1" points="789.6,509.8 789.6,513.5 775.6,513.5 771.8,498.2 	"/>
	<g class="st2">
		
			<text transform="matrix(1 0 0 1 70.9 513.4595)" class="st7" style="font-family:'SofiaPro-UltraLight'; font-size:48px; letter-spacing:-1;">graphic</text>
	</g>
	<g class="st2">
		
			<text transform="matrix(1 0 0 1 670.5867 513.4595)" class="st7" style="font-family:'SofiaPro-UltraLight'; font-size:48px; letter-spacing:-1;">brand</text>
	</g>
	<g class="st2">
		
			<text transform="matrix(1 0 0 1 402.4978 513.4595)" class="st7" style="font-family:'SofiaPro-UltraLight'; font-size:48px; letter-spacing:-1;">web</text>
	</g>
</g>
<g>
	<g class="st5">
		<path class="st6" d="M69.4,24.6c32.5,0,51.3,24.5,51.3,56.5c0,31.9-18.8,56-51.3,56H24.9V24.6H69.4z M69.4,114.8
			c16.8,0,25.5-16.2,25.5-33.7c0-17.6-8.7-34.1-25.5-34.1H50.6v67.8L69.4,114.8L69.4,114.8z"/>
		<path class="st6" d="M158.3,114.8h48v22.4h-73.7V24.6h72.2V47h-46.6v23.2h40.9v23h-40.8V114.8z"/>
		<path class="st6" d="M213.5,104.4h25.6c0,7.2,7.2,12.7,16,12.7c8.3,0,14.7-4.2,14.7-11.6c0-4.4-2.5-8.5-12.4-11.8L244,89.6
			c-24.8-6.7-29.6-21.9-29.6-32.5c0-20.3,17.3-34.5,39.7-34.5c21.6,0,38.1,12.9,38.1,34.8h-25.6c0-6.7-4.1-12.4-12.9-12.4
			c-8,0-13.2,5.4-13.2,11.6c0,2.3,0.7,7.4,11.1,10.3l11.8,3.8c16,4.9,32.3,13.1,32.3,33.5c0,24.2-20.9,35-41.5,35
			C230.1,139.2,213.5,125.1,213.5,104.4z"/>
		<path class="st6" d="M307.4,137.2V24.6h25.7v112.6L307.4,137.2L307.4,137.2z"/>
		<path class="st6" d="M344.7,81c0-32,25.3-58.3,57.8-58.3c17.8,0,33.3,7.5,43.1,19.3l-19,15.8c-6-7-14.5-11.3-24.2-11.3
			c-18.1,0-32,15.7-32,34.5c0,18.5,13.6,35.3,32.8,35.3c12.6,0,26.5-7,26.5-18.1h-31.6V77.4h59.6c0,42.6-23.7,61.8-53.8,61.8
			C369.3,139.2,344.7,112.7,344.7,81z"/>
		<path class="st6" d="M526.8,24.6h25.6v112.6h-22.5L493,72.5v64.7h-25.7V24.6h23.5l35.9,63.9V24.6H526.8z"/>
		<path class="st6" d="M596.1,114.8h48v22.4h-73.7V24.6h72.2V47h-46.5v23.2h40.8v23h-40.8V114.8z"/>
		<path class="st6" d="M713.9,137.2l-25.8-39.5h-5.2v39.5h-25.7V24.6h46.1c26.1,0,37.9,18.6,37.9,37.2c0,15.8-11.8,31-26.3,34.3
			l28.9,41L713.9,137.2L713.9,137.2z M682.8,47v30.4h16.3c11.3,0,16.2-7.4,16.2-14.9S710.2,47,699.8,47H682.8z"/>
	</g>
	<rect x="25" y="120.4" class="st6" width="704.7" height="20.5"/>
	<polygon class="st6" points="743.7,137.2 743.7,140.9 729.7,140.9 725.9,125.7 	"/>
	<g>
		<g>
			<path class="st7" d="M49.4,118.5h1.4v19.4c0,11.2-4.9,14.4-12,14.4c-3.5,0-6.9-1.5-9.2-4.8l1.2-0.8c2,2.8,5,4.1,8,4.1
				c6.2,0,10.6-2.8,10.6-13v-2.4c-2,3.6-5.8,6.1-10.3,6.1c-6.4,0-11.7-5.3-11.7-11.8c0-6.4,5.2-11.8,11.7-11.8
				c4.5,0,8.3,2.5,10.3,6.1V118.5z M49.4,129.9c0-6.1-4.7-10.6-10.3-10.6c-5.6,0-10.2,4.7-10.2,10.3c0,5.7,4.6,10.4,10.2,10.4
				C44.8,140,49.4,135.7,49.4,129.9z"/>
			<path class="st7" d="M69.5,118.3l-0.4,1.4c-1.1-0.3-2-0.4-2.7-0.4c-6.6,0-7.9,7.8-8,12.7v8.8H57v-22.4h1.4v6.3
				c1-3.6,3.7-6.9,8-6.9C67.2,117.9,68.3,118,69.5,118.3z"/>
			<path class="st7" d="M90.1,118.5h1.4v22.4h-1.4v-5.5c-2,3.6-5.8,6.1-10.3,6.1c-6.4,0-11.7-5.3-11.7-11.8
				c0-6.4,5.2-11.8,11.7-11.8c4.5,0,8.3,2.5,10.3,6.1V118.5z M90.1,129.9c0-6.1-4.7-10.6-10.3-10.6c-5.6,0-10.2,4.7-10.2,10.3
				c0,5.7,4.6,10.4,10.2,10.4C85.5,140,90.1,135.7,90.1,129.9z"/>
			<path class="st7" d="M121,129.7c0,6.4-5.2,11.8-11.7,11.8c-4.5,0-8.3-2.5-10.3-6.1v16.4h-1.4v-33.3H99v5.5
				c2-3.6,5.8-6.1,10.3-6.1C115.8,117.9,121,123.2,121,129.7z M119.6,129.7c0-5.7-4.6-10.4-10.2-10.4c-5.6,0-10.3,4.3-10.3,10.1
				c0,6.1,4.7,10.6,10.3,10.6C115,140,119.6,135.3,119.6,129.7z"/>
			<path class="st7" d="M144.3,127.7v13.2h-1.4v-13.2c0-5.1-3.4-8.4-7.7-8.4c-4.2,0-8.1,2.4-8.3,8.7v12.8h-1.4v-34.6h1.4v17.2
				c1.3-3.9,5-5.5,8.3-5.5C140.3,117.9,144.3,121.7,144.3,127.7z"/>
			<path class="st7" d="M149.2,110.2c0-0.8,0.7-1.4,1.5-1.4c0.9,0,1.5,0.6,1.5,1.4s-0.7,1.3-1.5,1.3
				C149.9,111.6,149.2,111,149.2,110.2z M150,140.9v-22.4h1.4v22.4H150z"/>
			<path class="st7" d="M155.8,129.6c0-7.1,5.3-11.7,11.7-11.7c2.7,0,5.3,1,7.3,2.4l-0.8,1.2c-1.8-1.2-4.1-2.1-6.5-2.1
				c-5.6,0-10.2,4.1-10.2,10.3c0,6.2,4.6,10.4,10.2,10.4c2.4,0,4.7-0.8,6.5-2.1l0.9,1.2c-2.1,1.5-4.6,2.4-7.3,2.4
				C161.1,141.5,155.8,136.7,155.8,129.6z"/>
		</g>
	</g>
	<g>
		<g>
			<path class="st7" d="M652.2,129.7c0,6.5-5.2,11.8-11.7,11.8c-4.5,0-8.3-2.5-10.3-6.1v5.5h-1.4v-34.6h1.4V124
				c2-3.6,5.8-6.1,10.3-6.1C647,117.9,652.2,123.2,652.2,129.7z M650.8,129.7c0-5.6-4.6-10.3-10.2-10.3c-5.6,0-10.3,4.4-10.3,10.6
				c0,5.8,4.7,10.1,10.3,10.1C646.2,140,650.8,135.3,650.8,129.7z"/>
			<path class="st7" d="M669.2,118.3l-0.4,1.4c-1.1-0.3-2-0.4-2.7-0.4c-6.6,0-7.9,7.8-8,12.7v8.8h-1.4v-22.4h1.4v6.3
				c1-3.6,3.7-6.9,8-6.9C666.9,117.9,668,118,669.2,118.3z"/>
			<path class="st7" d="M689.8,118.5h1.4v22.4h-1.4v-5.5c-2,3.6-5.8,6.1-10.3,6.1c-6.4,0-11.7-5.3-11.7-11.8
				c0-6.4,5.2-11.8,11.7-11.8c4.5,0,8.3,2.5,10.3,6.1V118.5z M689.8,129.9c0-6.1-4.7-10.6-10.3-10.6s-10.2,4.7-10.2,10.3
				c0,5.7,4.6,10.4,10.2,10.4S689.8,135.7,689.8,129.9z"/>
			<path class="st7" d="M716.2,127.7v13.2h-1.4v-13.2c0-5.1-3.4-8.4-7.7-8.4c-4.2,0-8.1,2.4-8.3,8.7v12.8h-1.4v-22.4h1.4v4.9
				c1.3-3.9,5-5.5,8.3-5.5C712.2,117.9,716.2,121.7,716.2,127.7z"/>
			<path class="st7" d="M742.2,106.3h1.4v34.6h-1.4v-5.5c-2,3.6-5.8,6.1-10.3,6.1c-6.4,0-11.7-5.3-11.7-11.8
				c0-6.4,5.2-11.8,11.7-11.8c4.5,0,8.3,2.5,10.3,6.1V106.3z M742.2,129.9c0-6.1-4.7-10.6-10.3-10.6s-10.2,4.7-10.2,10.3
				c0,5.7,4.6,10.4,10.2,10.4S742.2,135.7,742.2,129.9z"/>
		</g>
	</g>
	<g>
		<g>
			<path class="st7" d="M392.3,118.5h1.5l-8.4,22.4h-1.5l-8-20.8l-7.8,20.8h-1.5l-8.6-22.4h1.5l7.9,20.4l7.6-20.4h1.8l7.8,20.4
				L392.3,118.5z"/>
			<path class="st7" d="M417.2,130.3h-20.8c0.4,5.8,4.3,9.8,9.8,9.8c3.6,0,6.6-1.8,8.4-4.7l1.2,0.8c-2,3.3-5.6,5.3-9.6,5.3
				c-6.3,0-11.3-4.8-11.3-11.9s5-11.7,11.3-11.7s10.9,4.7,10.9,11.7v0.7H417.2z M415.7,129c-0.3-5.8-4.2-9.6-9.5-9.6
				c-5.4,0-9.4,3.7-9.8,9.6H415.7z"/>
			<path class="st7" d="M444.8,129.7c0,6.5-5.2,11.8-11.7,11.8c-4.5,0-8.3-2.5-10.3-6.1v5.5h-1.4v-34.6h1.4V124
				c2-3.6,5.8-6.1,10.3-6.1C439.5,117.9,444.8,123.2,444.8,129.7z M443.3,129.7c0-5.6-4.6-10.3-10.2-10.3s-10.3,4.4-10.3,10.6
				c0,5.8,4.7,10.1,10.3,10.1C438.7,140,443.3,135.3,443.3,129.7z"/>
		</g>
	</g>
</g>
</svg>
