<?xml version="1.0" encoding="utf-8"?>
<!-- Generator: Adobe Illustrator 27.2.0, SVG Export Plug-In . SVG Version: 6.00 Build 0)  -->
<svg version="1.1" id="Layer_1" xmlns="http://www.w3.org/2000/svg" xmlns:xlink="http://www.w3.org/1999/xlink" x="0px" y="0px"
	 viewBox="0 0 610 982.4" style="enable-background:new 0 0 610 982.4;" xml:space="preserve">
<style type="text/css">
	.st0{fill:#EBEBEA;}
	.st1{display:none;}
	.st2{display:inline;fill:#EBEBEA;}
	.st3{font-family:'SofiaPro-Black';}
	.st4{font-size:97.6302px;}
	.st5{letter-spacing:-4;}
	.st6{fill:none;stroke:#26479A;stroke-width:15;stroke-miterlimit:10;}
</style>
<g id="Layer_1_00000089535627134577521230000009995465589505273754_">
	<path class="st0" d="M116.1,438.4h331.8h37.5v37.5v119.6v113.8v93.1V829c0,20.6-16.9,37.5-37.5,37.5h-26.2H116.1"/>
	<path class="st0" d="M425.2,438.4H93.4H55.8v37.5v128.7v113.8v95V829c0,20.6,16.9,37.5,37.5,37.5h18.5h313.3"/>
	<g>
		<path class="st0" d="M98.4,105.2H71.2v14.2h21.6v13.3H71.2v26.5H55.8V91.8h42.6C98.4,91.8,98.4,105.2,98.4,105.2z"/>
		<path class="st0" d="M119.4,145.7h28.7v13.4h-44V91.8h43.2v13.4h-27.8v13.9h24.4v13.8h-24.4L119.4,145.7L119.4,145.7z"/>
		<path class="st0" d="M196.9,159.1l-5.1-15.6h-23.6l-5,15.6h-16.4l24.9-67.3h16.7l24.8,67.3H196.9z M172.3,130.2h15.1l-7.6-23.7
			L172.3,130.2z"/>
		<path class="st0" d="M254.3,91.8v13.4h-17.8v53.9h-15.3v-53.9h-17.8V91.8H254.3z"/>
		<path class="st0" d="M257.9,135.1V91.8h15.3v42.1c0,8.5,5.4,11.8,10.9,11.8s10.8-3.3,10.8-11.8V91.8h15.3v43.3
			c0,15.5-12.3,25.2-26.2,25.2C270.3,160.3,257.9,150.6,257.9,135.1z"/>
		<path class="st0" d="M353.6,159.1l-15.4-23.6H335v23.6h-15.3V91.8h27.5c15.6,0,22.7,11.1,22.7,22.3c0,9.5-7,18.6-15.7,20.5
			l17.3,24.5H353.6z M335,105.2v18.2h9.8c6.7,0,9.7-4.4,9.7-8.9s-3-9.3-9.3-9.3C345.2,105.2,335,105.2,335,105.2z"/>
		<path class="st0" d="M392.4,145.7h28.7v13.4h-44V91.8h43.2v13.4h-27.8v13.9h24.4v13.8h-24.4v12.8H392.4z"/>
		<path class="st0" d="M454.8,91.8c19.4,0,30.7,14.6,30.7,33.8c0,19-11.2,33.5-30.7,33.5h-26.6V91.8H454.8z M454.8,145.7
			c10.1,0,15.2-9.7,15.2-20.1c0-10.5-5.2-20.4-15.2-20.4h-11.2v40.5H454.8z"/>
	</g>
	<rect x="55.8" y="152.5" class="st0" width="429.6" height="429.6"/>
	<polygon class="st0" points="485.4,125.5 485.4,152.5 467.5,152.5 476.4,133.1 	"/>
</g>
<g id="Layer_2_00000041997335201407711690000003359633981692883642_" class="st1">
	<text transform="matrix(1 0 0 1 23.0664 281.0568)" class="st2 st3 st4 st5">FEATURED</text>
</g>
<g id="Layer_3">
	<path class="st6" d="M0,24h498.2c28,0,55.9,19,55.9,55.9v798.4c0,36.9,27.9,55.9,55.9,55.9"/>
</g>
</svg>
