<?xml version="1.0" encoding="utf-8"?>
<!-- Generator: Adobe Illustrator 27.2.0, SVG Export Plug-In . SVG Version: 6.00 Build 0)  -->
<svg version="1.1" id="Layer_1" xmlns="http://www.w3.org/2000/svg" xmlns:xlink="http://www.w3.org/1999/xlink" x="0px" y="0px"
	 viewBox="0 0 612 612" style="enable-background:new 0 0 612 612;" xml:space="preserve">
<style type="text/css">
	.st0{fill:#FFFFFF;}
	.st1{display:none;}
	.st2{display:inline;}
	.st3{font-family:'BerninaSans';}
	.st4{font-size:12px;}
	.st5{font-family:'SofiaPro-ExtraLight';}
	.st6{display:none;fill:none;stroke:#000000;stroke-width:9.85;stroke-miterlimit:10;}
	.st7{font-size:20.1166px;}
	.st8{fill:#8E8C89;}
	.st9{fill:#0047BA;}
</style>
<circle class="st0" cx="306" cy="306" r="306"/>
<g class="st1">
	<text transform="matrix(1 0 0 1 578.8589 182.1857)" class="st2 st3 st4">bernina sans</text>
</g>
<g class="st1">
	<text transform="matrix(1 0 0 1 578.8588 203.032)" class="st2 st5 st4">sofia pro</text>
</g>
<path class="st6" d="M221,242c0,57.4-46.6,104-104,104S13,299.4,13,242s46.6-104,104-104S221,184.6,221,242"/>
<g class="st1">
	<path class="st2" d="M62.9,194.9c6.1,0,11.8,0,17.2,3.1c5.2,3,8.5,8.1,8.5,15.8c0,15.6-13.1,17.1-13.1,17.1s17.7,1.2,17.7,19.2
		c0,8.1-3.7,14-9.1,17.6c-6.5,4.2-13.3,4.4-19.9,4.4H41v-77.2H62.9z M50.9,227.8h11.3c3.7,0,7,0,10.4-1.8c3.3-1.8,5.7-5.1,5.7-10.9
		c0-5-1.8-8.9-5.5-11c-3.4-1.8-7.1-1.8-10.8-1.8H50.9V227.8z M50.9,264.7h12.9c3.9,0,8.7,0,13.1-3c3.7-2.5,5.9-6.5,5.9-11.7
		c0-5.1-2.1-9.2-6.9-11.9c-4.7-2.6-9.2-2.6-13.1-2.6H50.9V264.7z"/>
	<path class="st2" d="M121.2,194.9l27.2,63.1l26.8-63.1h12.7v77.2h-9.9v-64.9l-26,61.3h-8.9l-25.9-61.3v64.9h-8.9v-77.2H121.2z"/>
</g>
<text transform="matrix(1 0 0 1 39.0738 292.3496)" class="st1 st5 st7">briana medina</text>
<path class="st6" d="M183,268.3c0,0,0,5.2,0,19.5c0,16.1,19.3,16.4,24.7,5.1"/>
<line class="st6" x1="41" y1="264.7" x2="41" y2="272.1"/>
<path class="st6" d="M41,267.1h-7.6c-9.3,0-15.5,6.6-11.6,16.9"/>
<g>
	<path class="st8" d="M306,603c-79.3,0-153.9-30.9-210-87C39.9,459.9,9,385.3,9,306S39.9,152.1,96,96C152.1,39.9,226.7,9,306,9
		s153.9,30.9,210,87s87,130.7,87,210s-30.9,153.9-87,210S385.3,603,306,603z M306,12.1c-78.5,0-152.3,30.6-207.8,86.1
		C42.7,153.7,12.1,227.5,12.1,306c0,78.5,30.6,152.3,86.1,207.8c55.5,55.5,129.3,86.1,207.8,86.1s152.3-30.6,207.8-86.1
		c55.5-55.5,86.1-129.3,86.1-207.8c0-78.5-30.6-152.3-86.1-207.8C458.3,42.7,384.5,12.1,306,12.1z"/>
	<g>
		<g>
			<path class="st8" d="M135,423.9c0,7.2-5.6,12.9-12.5,12.9c-4.5,0-8.6-2.5-10.6-6.2v5.5h-2.3v-37.7h2.3v18.8c2-3.7,6-6.2,10.6-6.2
				C129.3,411.1,135,416.7,135,423.9z M132.7,423.9c0-5.9-4.7-10.6-10.3-10.6c-5.6,0-10.5,4.4-10.5,10.8c0,6,4.8,10.4,10.5,10.4
				C128,434.6,132.7,429.8,132.7,423.9z"/>
		</g>
		<g>
			<path class="st8" d="M156.3,411.7l-0.6,2.2c-1.1-0.4-2.2-0.5-3.1-0.5c-6.6,0-8.2,7.7-8.3,13.3v9.5H142v-24.4h2.3v6.7
				c1-4.1,3.9-7.3,8.3-7.3C153.7,411.1,155.1,411.3,156.3,411.7z"/>
		</g>
		<g>
			<path class="st8" d="M160.2,402.8c0-1.1,0.9-1.9,2-1.9c1.1,0,2,0.8,2,1.9c0,1-0.9,1.8-2,1.8C161.1,404.6,160.2,403.8,160.2,402.8
				z M161.1,436.2v-24.4h2.3v24.4H161.1z"/>
		</g>
		<g>
			<path class="st8" d="M193.5,411.8h2.3v24.4h-2.3v-5.7c-2,3.8-6,6.3-10.6,6.3c-6.8,0-12.5-5.7-12.5-12.9c0-7.1,5.6-12.8,12.6-12.8
				c4.5,0,8.6,2.5,10.6,6.2V411.8z M193.5,424.2c0-6.3-4.9-10.8-10.5-10.8c-5.7,0-10.3,4.8-10.3,10.6c0,5.8,4.6,10.6,10.4,10.6
				C188.7,434.6,193.5,430.1,193.5,424.2z"/>
		</g>
		<g>
			<path class="st8" d="M225.7,421.9v14.3h-2.3V422c0-5.2-3.3-8.5-7.8-8.5c-4.3,0-8.5,2.5-8.7,9v13.7h-2.3v-24.4h2.3v5
				c1.4-4,5.4-5.6,8.8-5.6C221.5,411.1,225.7,415.2,225.7,421.9z"/>
		</g>
		<g>
			<path class="st8" d="M255.5,411.8h2.3v24.4h-2.3v-5.7c-2,3.8-6,6.3-10.6,6.3c-6.8,0-12.5-5.7-12.5-12.9c0-7.1,5.6-12.8,12.6-12.8
				c4.5,0,8.6,2.5,10.6,6.2V411.8z M255.5,424.2c0-6.3-4.9-10.8-10.5-10.8c-5.7,0-10.3,4.8-10.3,10.6c0,5.8,4.6,10.6,10.4,10.6
				C250.7,434.6,255.5,430.1,255.5,424.2z"/>
		</g>
		<g>
			<path class="st8" d="M320,421.9v14.3h-2.3V422c0-5.2-3.3-8.6-7.8-8.6c-4.8,0-8.5,2.8-8.5,10.1v12.6h-2.3v-14.3
				c0-5.2-3.3-8.5-7.7-8.5c-4.3,0-8.4,2.6-8.5,9v13.7h-2.3v-24.4h2.3v4.9c1.4-3.9,5.1-5.5,8.8-5.5c4.3,0,7.7,2.3,9,6.5
				c1.6-5.2,6.2-6.5,9.4-6.5C315.9,411.1,320,415.2,320,421.9z"/>
		</g>
		<g>
			<path class="st8" d="M351,424.9H329c0.5,5.9,4.5,9.7,10,9.7c3.7,0,6.8-1.8,8.6-4.8l2,1c-2.2,3.8-6.2,6-10.7,6
				c-6.8,0-12.3-5.2-12.3-12.9c0-7.7,5.5-12.7,12.3-12.7c6.9,0,12,5.1,12,12.7V424.9z M348.7,422.9c-0.4-5.8-4.3-9.5-9.7-9.5
				c-5.4,0-9.5,3.6-10,9.5H348.7z"/>
		</g>
		<g>
			<path class="st8" d="M379.3,398.5h2.3v37.7h-2.3v-5.4c-2,3.6-6.1,6.1-10.6,6.1c-6.9,0-12.6-5.6-12.6-12.9s5.6-12.8,12.6-12.8
				c4.5,0,8.5,2.5,10.6,6.1V398.5z M379.3,424.2c0-6.4-4.9-10.8-10.5-10.8c-5.7,0-10.4,4.7-10.4,10.6s4.7,10.6,10.4,10.6
				S379.3,430.2,379.3,424.2z"/>
		</g>
		<g>
			<path class="st8" d="M389.6,402.8c0-1.1,0.9-1.9,2-1.9c1.1,0,2,0.8,2,1.9c0,1-0.9,1.8-2,1.8C390.4,404.6,389.6,403.8,389.6,402.8
				z M390.4,436.2v-24.4h2.3v24.4H390.4z"/>
		</g>
		<g>
			<path class="st8" d="M422.5,421.9v14.3h-2.3V422c0-5.2-3.3-8.5-7.8-8.5c-4.3,0-8.5,2.5-8.7,9v13.7h-2.3v-24.4h2.3v5
				c1.4-4,5.4-5.6,8.8-5.6C418.4,411.1,422.5,415.2,422.5,421.9z"/>
		</g>
		<g>
			<path class="st8" d="M452.4,411.8h2.3v24.4h-2.3v-5.7c-2,3.8-6,6.3-10.6,6.3c-6.8,0-12.5-5.7-12.5-12.9c0-7.1,5.6-12.8,12.6-12.8
				c4.5,0,8.6,2.5,10.6,6.2V411.8z M452.4,424.2c0-6.3-4.9-10.8-10.5-10.8c-5.7,0-10.3,4.8-10.3,10.6c0,5.8,4.7,10.6,10.4,10.6
				C447.6,434.6,452.4,430.1,452.4,424.2z"/>
		</g>
	</g>
	<g>
		<path d="M589.9,305.4c0-156-126.9-283-283-283s-283,126.9-283,283c0,31.5,5.2,61.9,14.7,90.2c1.6-15.4,8-25.6,17.4-32.4
			c-4.3-18.6-6.5-37.9-6.5-57.8C49.5,163.4,165,48,306.9,48c141.9,0,257.4,115.5,257.4,257.4c0,47.5-12.9,92-35.4,130.2
			c-5.9,7.8-16.4,10.7-24.2,8.9c-8.8-2-13.5-9-13.5-20.2v-40.7h0V182.9h-33.1l-69.6,164l-70.7-164h-33.3v200.6h23.2V214.9
			l67.2,159.2h23.2l67.5-159.2v168.6h0v40.7c0,23.2,12.8,40.5,33.3,45.2c3.6,0.8,7.2,1.2,10.9,1.2c18.5,0,36.2-10.5,44.4-27.6
			l-0.1,0C576.9,402.2,589.9,355.3,589.9,305.4z"/>
	</g>
	<g>
		<g>
			<path class="st9" d="M500.3,475c-47.2,53.8-116.4,87.8-193.4,87.8c-105.3,0-196-63.6-235.8-154.4c-1.8-5.4-2.9-12.4,0.7-17.6
				c3.2-4.6,9.7-7.3,17.9-7.3h19.8v0h60c17.1,0,34.9-0.5,51.7-11.5c14.1-9.3,23.7-24.5,23.7-45.6c0-46.7-45.9-49.9-45.9-49.9
				s34.1-4,34.1-44.5c0-20-8.5-33.3-22.1-41.1c-14.1-8-29.1-8-44.8-8h-56.8v175H89.7c-16.7,0-30.9,6.7-39,18.4
				c-8,11.6-9.1,26.9-3,42.9l2.3,5C95,521,193.2,588.4,306.9,588.4c95.7,0,180.4-47.7,231.7-120.7C527,474.5,514.2,477,500.3,475z
				 M135.1,202.1h28.8c9.6,0,19.2,0,28,4.8c9.6,5.3,14.4,15.5,14.4,28.5c0,14.9-6.4,23.5-14.9,28.3c-8.8,4.8-17.3,4.8-26.9,4.8
				h-29.3V202.1z M135.1,288.5h30.9c10.1,0,21.9,0,34.1,6.7c12.5,6.9,17.9,17.6,17.9,30.9c0,13.6-5.6,24-15.2,30.4
				c-11.5,7.7-24,7.7-34.1,7.7h-33.6V288.5z"/>
		</g>
	</g>
</g>
</svg>
