<?xml version="1.0" encoding="utf-8"?>
<!-- Generator: Adobe Illustrator 27.2.0, SVG Export Plug-In . SVG Version: 6.00 Build 0)  -->
<svg version="1.1" id="Layer_1" xmlns="http://www.w3.org/2000/svg" xmlns:xlink="http://www.w3.org/1999/xlink" x="0px" y="0px"
	 viewBox="0 0 858.6 320.1" style="enable-background:new 0 0 858.6 320.1;" xml:space="preserve">
<style type="text/css">
	.st0{fill:#323030;}
	.st1{display:none;}
	.st2{fill:none;stroke:#25449C;stroke-width:20;stroke-miterlimit:10;}
	.st3{display:inline;fill:#323030;}
	.st4{font-family:'SofiaPro-Black';}
	.st5{font-size:97.6302px;}
	.st6{letter-spacing:-4;}
</style>
<path class="st0" d="M222.9,121.5c0,21-13.6,44.1-49.7,44.1h-66.7V12h62.2c28.1,0,46.1,16.9,46.1,39.7c0,10.7-4,26.7-21.6,31.9
	C213.5,86.5,222.9,103.9,222.9,121.5z M166.3,42.6h-24.7V72H166c8.2,0,13.8-5.3,13.8-14.7C179.9,49.5,175.9,42.6,166.3,42.6z
	 M168.9,135.1c12.5,0,18.7-8.5,18.7-17.2c0-8-5.6-17.2-18.7-17.2h-27.4V135L168.9,135.1L168.9,135.1z"/>
<path class="st0" d="M316.6,165.6l-35.2-53.9h-7.1v53.9h-35V12h62.9c35.7,0,51.7,25.4,51.7,50.8c0,21.6-16.1,42.4-35.9,46.8l39.5,56
	H316.6z M274.3,42.6V84h22.3c15.4,0,22.1-10,22.1-20.3s-6.9-21.2-21.2-21.2L274.3,42.6L274.3,42.6z"/>
<path class="st0" d="M370.7,165.6V12h35v153.6H370.7z"/>
<path class="st0" d="M523.3,165.6L511.7,130h-53.9l-11.4,35.7h-37.5L465.8,12h38.1l56.6,153.6H523.3z M467.3,99.6h34.6l-17.4-54.2
	L467.3,99.6z"/>
<path class="st0" d="M642.9,12h35v153.6h-30.8l-50.4-88.3v88.3h-35V12h32.1l49,87.2V12H642.9z"/>
<path class="st0" d="M770.8,165.6L759.2,130h-53.9l-11.4,35.7h-37.5L713.3,12h38.1L808,165.6H770.8z M714.8,99.6h34.6L732,45.5
	L714.8,99.6z"/>
<path class="st0" d="M292.2,302.6h-35.9l-10-87.4L212.9,285h-26.7l-33.4-69.6l-10.3,87.2h-35.9L125.5,149h29.2l44.8,96.1l44.1-96.1
	h29.9L292.2,302.6z"/>
<path class="st0" d="M342.2,272.1h65.5v30.5H307.2V149h98.5v30.5h-63.5v31.7h55.7v31.4h-55.7V272.1z"/>
<path class="st0" d="M469.6,149c44.4,0,70,33.4,70,77.1c0,43.5-25.6,76.5-70,76.5H409v-137l42.7-16.6H469.6z M469.6,272.1
	c23,0,34.8-22.1,34.8-45.9c0-24.1-11.8-46.6-34.8-46.6H444v92.5H469.6z"/>
<path class="st0" d="M540.8,302.6V149h35.3v153.6H540.8z"/>
<path class="st0" d="M670.1,149h36.2v153.6h-31.8l-52-88.3v88.3h-36.2V149h33.2l50.7,87.2V149H670.1z"/>
<path class="st0" d="M821.5,302.6L809.9,267H756l-11.4,35.7h-37.5L763.9,149H802l56.6,153.6H821.5z M765.5,236.6h34.6l-17.4-54.2
	L765.5,236.6z"/>
<polygon class="st0" points="106.5,302.6 106.5,111.1 141.5,160.3 "/>
<polygon class="st0" points="763.8,149 758.8,128.5 770.3,139.7 770.3,155 "/>
<polygon class="st0" points="511.7,130 543.1,225.8 563.4,159.6 535.2,156.9 524,127.5 "/>
<rect x="104.9" y="286.8" class="st1" width="751.4" height="3"/>
<rect x="101.4" y="27.2" class="st1" width="685.7" height="10.3"/>
<rect x="113.5" y="9.2" class="st1" width="1.8" height="295.5"/>
<rect x="405.7" y="165.6" width="3.2" height="142"/>
<rect x="576.1" y="149" width="10.2" height="17.9"/>
<polygon class="st0" points="641,155 677.9,221.7 677.9,149 "/>
<polygon class="st0" points="706.3,149 706.3,108.9 688.8,145.4 697.6,159.1 "/>
<path class="st2" d="M0,32.3c28,0,55.9,19,55.9,55.9v214.4"/>
<g id="Layer_2_00000016773958917907076900000003199762338419051936_" class="st1">
	<text transform="matrix(1 0 0 1 243.7937 123.4357)" class="st3 st4 st5 st6">BRIANA</text>
	<text transform="matrix(1 0 0 1 243.7937 183.4357)" class="st3 st4 st5 st6">MEDINA</text>
</g>
</svg>
