<?xml version="1.0" encoding="utf-8"?>
<!-- Generator: Adobe Illustrator 27.2.0, SVG Export Plug-In . SVG Version: 6.00 Build 0)  -->
<svg version="1.1" id="Layer_1" xmlns="http://www.w3.org/2000/svg" xmlns:xlink="http://www.w3.org/1999/xlink" x="0px" y="0px"
	 viewBox="0 0 858.6 320.1" style="enable-background:new 0 0 858.6 320.1;" xml:space="preserve">
<style type="text/css">
	.st0{fill:#323030;}
	.st1{display:none;}
	.st2{fill:none;stroke:#25449C;stroke-width:20;stroke-miterlimit:10;}
	.st3{display:inline;fill:#323030;}
	.st4{font-family:'SofiaPro-Black';}
	.st5{font-size:97.6302px;}
	.st6{letter-spacing:-2;}
</style>
<path class="st0" d="M277.6,131.7c0,13.8-8.9,29-32.7,29h-43.8V59.7H242c18.5,0,30.3,11.1,30.3,26.1c0,7-2.6,17.5-14.2,21
	C271.5,108.7,277.6,120.1,277.6,131.7z M240.4,79.8h-16.2v19.3h16c5.4,0,9.1-3.5,9.1-9.7C249.4,84.3,246.7,79.8,240.4,79.8z
	 M242.1,140.6c8.2,0,12.3-5.6,12.3-11.3c0-5.3-3.7-11.3-12.3-11.3h-18v22.5L242.1,140.6L242.1,140.6z"/>
<path class="st0" d="M339.2,160.6l-23.1-35.4h-4.7v35.4h-23V59.7h41.3c23.5,0,34,16.7,34,33.4c0,14.2-10.6,27.9-23.6,30.8l26,36.8
	H339.2z M311.4,79.8V107h14.7c10.1,0,14.5-6.6,14.5-13.3c0-6.8-4.5-13.9-13.9-13.9L311.4,79.8L311.4,79.8z"/>
<path class="st0" d="M374.8,160.6V59.7h23v100.9H374.8z"/>
<path class="st0" d="M475,160.6l-7.6-23.4H432l-7.5,23.5h-24.6l37.4-101h25l37.2,100.9H475z M438.2,117.3H461l-11.4-35.6
	L438.2,117.3z"/>
<path class="st0" d="M553.6,59.7h23v100.9h-20.2l-33.1-58v58h-23V59.7h21.1l32.2,57.3L553.6,59.7L553.6,59.7z"/>
<path class="st0" d="M637.7,160.6l-7.6-23.4h-35.4l-7.5,23.5h-24.6l37.4-101h25l37.2,100.9H637.7z M600.9,117.3h22.7l-11.4-35.6
	L600.9,117.3z"/>
<path class="st0" d="M323.2,250.7h-23.6l-6.6-57.4l-22,45.9h-17.5l-22-45.7l-6.8,57.3h-23.6l12.4-100.9h19.2l29.4,63.2l29-63.2h19.7
	L323.2,250.7z"/>
<path class="st0" d="M356,230.6h43v20h-66V149.7h64.7v20H356v20.8h36.6v20.6H356V230.6z"/>
<path class="st0" d="M439.8,149.7c29.2,0,46,22,46,50.7c0,28.6-16.8,50.3-46,50.3h-39.8v-90l28.1-10.9H439.8z M439.8,230.6
	c15.1,0,22.9-14.5,22.9-30.2c0-15.8-7.8-30.6-22.9-30.6h-16.8v60.8H439.8z"/>
<path class="st0" d="M486.6,250.7V149.7h23.2v100.9H486.6z"/>
<path class="st0" d="M571.5,149.7h23.8v100.9h-20.9l-34.2-58v58h-23.8V149.7h21.8l33.3,57.3L571.5,149.7L571.5,149.7z"/>
<path class="st0" d="M671,250.7l-7.6-23.4H628l-7.5,23.5h-24.6l37.3-101h25l37.2,100.9H671z M634.2,207.3H657l-11.4-35.6
	L634.2,207.3z"/>
<polygon class="st0" points="201.1,250.7 201.1,124.8 224.1,157.2 "/>
<polygon class="st0" points="633.1,149.7 629.8,136.3 637.4,143.6 637.4,153.7 "/>
<polygon class="st0" points="467.4,137.2 488.1,200.2 501.4,156.7 482.9,154.9 475.5,135.6 "/>
<rect x="104.9" y="286.8" class="st1" width="751.4" height="3"/>
<rect x="101.4" y="27.2" class="st1" width="685.7" height="10.3"/>
<rect x="113.5" y="9.2" class="st1" width="1.8" height="295.5"/>
<rect x="397.8" y="160.6" width="2.1" height="93.3"/>
<rect x="509.7" y="149.7" width="6.7" height="11.8"/>
<polygon class="st0" points="552.4,153.7 576.7,197.5 576.7,149.7 "/>
<polygon class="st0" points="595.3,149.7 595.3,123.4 583.8,147.4 589.6,156.4 "/>
<path class="st2" d="M0,32.3c28,0,55.9,19,55.9,55.9v214.4"/>
<g id="Layer_2_00000016773958917907076900000003199762338419051936_" class="st1">
	<text transform="matrix(1 0 0 1 243.7937 123.4357)" class="st3 st4 st5 st6">BRIANA</text>
	<text transform="matrix(1 0 0 1 243.7937 183.4357)" class="st3 st4 st5 st6">MEDINA</text>
</g>
</svg>
