<?xml version="1.0" encoding="utf-8"?>
<!-- Generator: Adobe Illustrator 27.2.0, SVG Export Plug-In . SVG Version: 6.00 Build 0)  -->
<svg version="1.1" id="Layer_1" xmlns="http://www.w3.org/2000/svg" xmlns:xlink="http://www.w3.org/1999/xlink" x="0px" y="0px"
	 viewBox="0 0 600 217.2" style="enable-background:new 0 0 600 217.2;" xml:space="preserve">
<style type="text/css">
	.st0{fill:#294B9A;}
	.st1{enable-background:new    ;}
	.st2{fill:#EBEBEA;}
	.st3{fill:#2F4796;stroke:#2F4897;stroke-width:0.5;stroke-miterlimit:10;}
	.st4{display:none;}
	.st5{display:inline;}
	.st6{font-family:'SofiaPro-Black';}
	.st7{font-size:116.578px;}
	.st8{letter-spacing:-3;}
</style>
<path class="st0" d="M38.9,142.6V65.4c0-30.1,23-45.8,45.8-45.8h360.1v10.8H84.7c-16.9,0-35,11-35,35v77.2"/>
<path class="st0" d="M49.7,153c0,30.1-23,45.8-45.8,45.8V188c16.9,0,35-11,35-35H49.7z"/>
<g id="Layer_2_00000055708328275367571710000009479771166177285261_">
	<g class="st1">
		<path class="st2" d="M137.7,143.4l-18.4-28.2h-3.7v28.2H97.2V63h32.9c18.7,0,27,13.3,27,26.6c0,11.3-8.4,22.1-18.8,24.5l20.6,29.3
			H137.7z M115.6,79v21.7h11.7c8,0,11.5-5.2,11.5-10.6S135.2,79,127.7,79H115.6z"/>
		<path class="st2" d="M185.7,127.4H220v16h-52.6V63H219v16h-33.2v16.6h29.1V112h-29.1v15.4H185.7z"/>
		<path class="st2" d="M226.1,119.9h18.3c0,5.1,5.1,9.1,11.4,9.1c5.9,0,10.5-3,10.5-8.3c0-3.1-1.7-6.1-8.9-8.4l-9.6-2.9
			c-17.7-4.8-21.1-15.6-21.1-23.2c0-14.5,12.4-24.6,28.3-24.6c15.4,0,27.2,9.2,27.2,24.8H264c0-4.8-2.9-8.9-9.2-8.9
			c-5.7,0-9.4,3.8-9.4,8.3c0,1.6,0.5,5.2,7.9,7.3l8.4,2.7c11.4,3.5,23.1,9.3,23.1,23.9c0,17.3-14.9,24.9-29.6,24.9
			C238,144.7,226.1,134.7,226.1,119.9z"/>
		<path class="st2" d="M293.2,114.7V63h18.3v50.2c0,10.1,6.4,14.1,13.1,14.1c6.5,0,12.9-4,12.9-14.1V63h18.3v51.6
			c0,18.5-14.7,30.1-31.2,30.1C308,144.7,293.2,133.2,293.2,114.7z"/>
		<path class="st2" d="M461.8,143.4H443l-5.2-45.7l-17.5,36.5h-14l-17.5-36.4l-5.4,45.6h-18.8l9.9-80.3h15.3l23.4,50.2L436.4,63H452
			L461.8,143.4z"/>
		<path class="st2" d="M489.6,127.4h34.3v16h-52.6V63h51.5v16h-33.2v16.6h29.1V112h-29.1V127.4z"/>
	</g>
</g>
<polyline class="st0" points="429.6,19.6 600,19.6 600,30.4 429.6,30.4 "/>
<polyline class="st0" points="38.9,153 38.9,133.7 49.7,133.7 49.7,153 "/>
<polyline class="st0" points="3.9,188 -2.8,188 -2.8,198.8 3.9,198.8 "/>
<g>
	<g>
		<g class="st1">
			<path class="st3" d="M97.2,168.6c0-3.1,2.4-5.7,5.5-5.7s5.6,2.6,5.6,5.7c0,3.1-2.4,5.7-5.6,5.7C99.7,174.3,97.2,171.8,97.2,168.6
				z M107.9,168.6c0-2.9-2.2-5.2-5.1-5.2c-2.8,0-5.1,2.4-5.1,5.2s2.2,5.2,5.1,5.2C105.6,173.8,107.9,171.5,107.9,168.6z"/>
			<path class="st3" d="M116.8,166.6h0.5v7.5h-0.5v-1.8c-0.7,1.2-1.9,2-3.4,2c-2.1,0-3.9-1.8-3.9-3.9c0-2.1,1.7-3.9,3.9-3.9
				c1.5,0,2.8,0.8,3.4,2V166.6z M116.8,170.5c0-2-1.6-3.5-3.4-3.5c-1.9,0-3.4,1.6-3.4,3.4c0,1.9,1.5,3.5,3.4,3.5
				C115.2,173.8,116.8,172.4,116.8,170.5z"/>
			<path class="st3" d="M124.8,174.1h-0.7l-4.3-4.1v4.1h-0.5v-11.5h0.5v7.3l3.1-3.2h0.7l-3.2,3.3L124.8,174.1z"/>
			<path class="st3" d="M131.7,162.6h0.5v11.5h-0.5v-1.8c-0.7,1.2-1.9,2-3.4,2c-2.1,0-3.9-1.8-3.9-3.9c0-2.1,1.7-3.9,3.9-3.9
				c1.5,0,2.8,0.8,3.4,2V162.6z M131.7,170.5c0-2-1.6-3.5-3.4-3.5c-1.9,0-3.4,1.6-3.4,3.4c0,1.9,1.5,3.5,3.4,3.5
				C130.2,173.8,131.7,172.4,131.7,170.5z"/>
			<path class="st3" d="M141.1,166.6h0.5v7.5h-0.5v-1.8c-0.7,1.2-1.9,2-3.4,2c-2.1,0-3.9-1.8-3.9-3.9c0-2.1,1.7-3.9,3.9-3.9
				c1.5,0,2.8,0.8,3.4,2V166.6z M141.1,170.5c0-2-1.6-3.5-3.4-3.5c-1.9,0-3.4,1.6-3.4,3.4c0,1.9,1.5,3.5,3.4,3.5
				C139.6,173.8,141.1,172.4,141.1,170.5z"/>
			<path class="st3" d="M143.7,174.1v-11.5h0.5v11.5H143.7z"/>
			<path class="st3" d="M153.2,170.6h-6.9c0.1,1.9,1.4,3.3,3.3,3.3c1.2,0,2.2-0.6,2.8-1.6l0.4,0.3c-0.7,1.1-1.9,1.8-3.2,1.8
				c-2.1,0-3.8-1.6-3.8-4s1.7-3.9,3.8-3.9s3.6,1.6,3.6,3.9L153.2,170.6L153.2,170.6z M152.7,170.1c-0.1-1.9-1.4-3.2-3.2-3.2
				s-3.1,1.2-3.3,3.2H152.7z"/>
			<path class="st3" d="M153.1,176.9c0.8-1.2,1.3-3,1.3-4.7h0.5c0,1.8-0.5,3.6-1.4,4.9L153.1,176.9z"/>
			<path class="st3" d="M165.2,163.1c2.2,0,3,1.6,3,3.2c0,1.6-0.8,3.2-3.1,3.2h-3.7v4.5H161v-11h4.2V163.1z M165.2,169.1
				c1.9,0,2.6-1.3,2.6-2.8c0-1.4-0.7-2.8-2.5-2.8h-3.8v5.5h3.7V169.1z"/>
			<path class="st3" d="M176.2,174.1L175,171h-5.6l-1.2,3.1h-0.5l4.2-11h0.5l4.2,11H176.2z M169.7,170.6h5.2l-2.6-6.9L169.7,170.6z"
				/>
			<path class="st3" d="M182.8,163.4L182.8,163.4v10.8h-0.5v-10l-2.4,1.1v-0.5L182.8,163.4z"/>
			<path class="st3" d="M191.7,170.9c0,2-1.5,3.4-3.5,3.4c-1.5,0-2.8-0.8-3.5-2l0.4-0.2c0.6,1,1.7,1.7,3,1.7c1.7,0,3.1-1.2,3.1-2.9
				c0-1.6-1.2-2.7-2.8-2.7c-0.9,0-2.1,0.3-3.1,0.8l-0.2-0.3l0.9-5.2h4.9v0.5h-4.5l-0.8,4.4c1-0.4,1.9-0.7,2.8-0.7
				C190.4,167.7,191.7,169,191.7,170.9z"/>
			<path class="st3" d="M193,168.8c0-3,0.8-5.5,3.7-5.5s3.7,2.4,3.7,5.5c0,3-0.7,5.5-3.7,5.5C193.8,174.3,193,171.8,193,168.8z
				 M199.9,168.8c0-2.8-0.6-5-3.2-5s-3.2,2.2-3.2,5c0,2.7,0.7,5,3.2,5S199.9,171.6,199.9,168.8z"/>
			<path class="st3" d="M201.3,163.5h6.6v0.1l-5.8,10.5h-0.5l5.6-10.1h-5.8v-0.5H201.3z"/>
			<path class="st3" d="M210.7,163.4L210.7,163.4v10.8h-0.5v-10l-2.4,1.1v-0.5L210.7,163.4z"/>
		</g>
	</g>
</g>
<g>
	<g>
		<g class="st1">
			<path class="st3" d="M442.6,171c0,1.8-1.6,3.3-3.7,3.3s-3.6-1.5-3.6-3.3c0-1.4,0.9-2.6,2.4-3.1c-0.9-0.4-1.4-1.2-1.4-2.2
				c0-1.4,1.1-2.4,2.7-2.4s2.7,1.1,2.7,2.4c0,1-0.6,1.8-1.5,2.2C441.6,168.4,442.6,169.6,442.6,171z M442.1,171
				c0-1.5-1.3-2.8-3.2-2.8c-1.9,0-3.1,1.3-3.1,2.8c0,1.6,1.3,2.8,3.1,2.8S442.1,172.6,442.1,171z M438.9,167.8c1.3,0,2.3-0.9,2.3-2
				s-1-2-2.3-2s-2.2,0.9-2.2,2C436.7,166.9,437.6,167.7,438.9,167.8z"/>
			<path class="st3" d="M451.1,171.3v0.5h-1.7v2.3h-0.5v-2.3h-5.8v-0.2l6-8.1h0.2v7.8H451.1z M444,171.3h4.9v-6.7L444,171.3z"/>
			<path class="st3" d="M458.8,170.9c0,2-1.5,3.4-3.5,3.4c-1.5,0-2.8-0.8-3.5-2l0.4-0.2c0.6,1,1.7,1.7,3,1.7c1.7,0,3.1-1.2,3.1-2.9
				c0-1.6-1.2-2.7-2.8-2.7c-0.9,0-2.1,0.3-3.1,0.8l-0.2-0.3l0.9-5.2h4.9v0.5h-4.5l-0.8,4.4c1-0.4,1.9-0.7,2.8-0.7
				C457.4,167.7,458.8,169,458.8,170.9z"/>
			<path class="st3" d="M470.8,170.9c0,1.5-0.9,3.5-3.5,3.5c-2.2,0-3.5-1.5-3.5-4.1c0-2,0-6.9,3.8-6.9c1.2,0,2.3,0.4,2.9,1.8
				l-0.4,0.2c-0.5-1.2-1.4-1.6-2.5-1.6c-2.8,0-3.3,3.1-3.3,5.2c0.5-1.1,2-1.5,3.1-1.5C469.4,167.5,470.8,169,470.8,170.9z
				 M470.3,170.8c0-1.5-1.2-2.8-2.9-2.8c-1.1,0-3.1,0.5-3.1,2.4c0,2.4,1.5,3.4,3,3.4C469.2,173.8,470.3,172.4,470.3,170.8z"/>
			<path class="st3" d="M479.3,171.3v0.5h-1.7v2.3h-0.5v-2.3h-5.8v-0.2l6.1-8.1h0.2v7.8H479.3z M472.2,171.3h4.9v-6.7L472.2,171.3z"
				/>
			<path class="st3" d="M483.3,174.3c-1.2,0-2.3-0.4-2.9-1.8l0.4-0.2c0.5,1.2,1.4,1.6,2.5,1.6c2.8,0,3.3-3.2,3.3-5.3
				c-0.5,1.1-2,1.5-3.1,1.5c-2,0-3.4-1.5-3.4-3.3c0-1.5,0.9-3.4,3.5-3.4c2.2,0,3.5,1.4,3.5,4.1C487.2,169.4,487.2,174.3,483.3,174.3
				z M486.7,167.2c0-2.4-1.5-3.3-3-3.3c-1.9,0-3,1.4-3,3c0,1.5,1.2,2.8,2.9,2.8C484.7,169.6,486.6,169.1,486.7,167.2z"/>
			<path class="st3" d="M499.1,171.2c0,1.8-1.6,3.1-3.7,3.1c-1.4,0-2.7-0.8-3.3-2l0.4-0.2c0.5,1,1.6,1.7,2.8,1.7
				c1.9,0,3.3-1.1,3.3-2.6s-1.2-2.5-2.7-2.5h-1.1v-0.5h1.1c1.2,0,2.1-0.8,2.1-2.1s-1-2.2-2.6-2.2c-1,0-2,0.5-2.4,1.3l-0.4-0.2
				c0.5-0.9,1.6-1.5,2.8-1.5c1.9,0,3.1,1.1,3.1,2.7c0,1-0.6,1.9-1.5,2.3C498.1,168.6,499.1,169.8,499.1,171.2z"/>
			<path class="st3" d="M507.5,170.9c0,1.5-0.9,3.5-3.5,3.5c-2.2,0-3.5-1.5-3.5-4.1c0-2,0-6.9,3.8-6.9c1.2,0,2.3,0.4,2.9,1.8
				l-0.4,0.2c-0.5-1.2-1.4-1.6-2.5-1.6c-2.8,0-3.3,3.1-3.3,5.2c0.5-1.1,2-1.5,3.1-1.5C506.1,167.5,507.5,169,507.5,170.9z
				 M507,170.8c0-1.5-1.2-2.8-2.9-2.8c-1.1,0-3.1,0.5-3.1,2.4c0,2.4,1.5,3.4,3,3.4C505.8,173.8,507,172.4,507,170.8z"/>
			<path class="st3" d="M516,171c0,1.8-1.6,3.3-3.7,3.3c-2.1,0-3.6-1.5-3.6-3.3c0-1.4,0.9-2.6,2.4-3.1c-0.9-0.4-1.4-1.2-1.4-2.2
				c0-1.4,1.1-2.4,2.7-2.4s2.7,1.1,2.7,2.4c0,1-0.6,1.8-1.5,2.2C515,168.4,516,169.6,516,171z M515.5,171c0-1.5-1.3-2.8-3.2-2.8
				c-1.9,0-3.1,1.3-3.1,2.8c0,1.6,1.3,2.8,3.1,2.8C514.1,173.8,515.5,172.6,515.5,171z M512.3,167.8c1.3,0,2.3-0.9,2.3-2s-1-2-2.3-2
				s-2.2,0.9-2.2,2C510.1,166.9,511,167.7,512.3,167.8z"/>
			<path class="st3" d="M523.9,171.2c0,1.8-1.6,3.1-3.7,3.1c-1.4,0-2.7-0.8-3.3-2l0.4-0.2c0.5,1,1.6,1.7,2.8,1.7
				c1.9,0,3.3-1.1,3.3-2.6s-1.2-2.5-2.7-2.5h-1.1v-0.5h1.1c1.2,0,2.1-0.8,2.1-2.1s-1-2.2-2.6-2.2c-1,0-2,0.5-2.4,1.3l-0.4-0.2
				c0.5-0.9,1.6-1.5,2.8-1.5c1.9,0,3.1,1.1,3.1,2.7c0,1-0.6,1.9-1.5,2.3C523,168.6,523.9,169.8,523.9,171.2z"/>
		</g>
	</g>
</g>
<g>
	<g>
		<g class="st1">
			<path class="st3" d="M252.6,170.4c0,2.2-1.7,3.9-3.9,3.9c-1.5,0-2.8-0.8-3.4-2v1.8h-0.5v-11.5h0.5v5.9c0.7-1.2,1.9-2,3.4-2
				C250.9,166.5,252.6,168.2,252.6,170.4z M252.1,170.4c0-1.9-1.5-3.4-3.4-3.4s-3.4,1.5-3.4,3.5c0,1.9,1.6,3.4,3.4,3.4
				C250.6,173.8,252.1,172.3,252.1,170.4z"/>
			<path class="st3" d="M258.4,166.6l-0.1,0.5c-0.4-0.1-0.7-0.1-0.9-0.1c-2.2,0-2.6,2.6-2.7,4.2v2.9h-0.5v-7.5h0.5v2.1
				c0.3-1.2,1.2-2.3,2.7-2.3C257.6,166.5,258,166.5,258.4,166.6z"/>
			<path class="st3" d="M259,163.9c0-0.3,0.2-0.5,0.5-0.5s0.5,0.2,0.5,0.5s-0.2,0.4-0.5,0.4C259.2,164.3,259,164.2,259,163.9z
				 M259.2,174.1v-7.5h0.5v7.5H259.2z"/>
			<path class="st3" d="M259.4,177.7v-0.5h0.5c1.5,0,2-1.2,2-2.7v-8h0.5v8c0,1.8-0.6,3.1-2.5,3.1L259.4,177.7L259.4,177.7z
				 M261.7,163.9c0-0.3,0.2-0.5,0.5-0.5s0.5,0.2,0.5,0.5s-0.2,0.4-0.5,0.4C261.9,164.3,261.7,164.2,261.7,163.9z"/>
			<path class="st3" d="M276.7,169.7v4.4h-0.5v-4.4c0-1.7-1.1-2.8-2.6-2.8s-2.8,0.8-2.8,3.3v3.9h-0.5v-4.4c0-1.7-1.1-2.8-2.6-2.8
				c-1.4,0-2.7,0.8-2.8,2.9v4.3h-0.5v-7.5h0.5v1.6c0.4-1.3,1.6-1.8,2.8-1.8c1.4,0,2.5,0.8,2.9,2.2c0.4-1.7,1.9-2.2,3-2.2
				C275.4,166.5,276.7,167.7,276.7,169.7z"/>
			<path class="st3" d="M285.6,170.6h-6.9c0.1,1.9,1.4,3.3,3.3,3.3c1.2,0,2.2-0.6,2.8-1.6l0.4,0.3c-0.7,1.1-1.9,1.8-3.2,1.8
				c-2.1,0-3.8-1.6-3.8-4s1.7-3.9,3.8-3.9c2.1,0,3.6,1.6,3.6,3.9L285.6,170.6L285.6,170.6z M285.1,170.1c-0.1-1.9-1.4-3.2-3.2-3.2
				c-1.8,0-3.1,1.2-3.3,3.2H285.1z"/>
			<path class="st3" d="M293.8,162.6h0.5v11.5h-0.5v-1.8c-0.7,1.2-1.9,2-3.4,2c-2.1,0-3.9-1.8-3.9-3.9c0-2.1,1.7-3.9,3.9-3.9
				c1.5,0,2.8,0.8,3.4,2V162.6z M293.8,170.5c0-2-1.6-3.5-3.4-3.5c-1.9,0-3.4,1.6-3.4,3.4c0,1.9,1.5,3.5,3.4,3.5
				C292.3,173.8,293.8,172.4,293.8,170.5z"/>
			<path class="st3" d="M296.2,163.9c0-0.3,0.2-0.5,0.5-0.5s0.5,0.2,0.5,0.5s-0.2,0.4-0.5,0.4C296.4,164.3,296.2,164.2,296.2,163.9z
				 M296.5,174.1v-7.5h0.5v7.5H296.5z"/>
			<path class="st3" d="M305.4,169.7v4.4h-0.5v-4.4c0-1.7-1.1-2.8-2.6-2.8c-1.4,0-2.7,0.8-2.8,2.9v4.3H299v-7.5h0.5v1.6
				c0.4-1.3,1.7-1.8,2.8-1.8C304,166.5,305.4,167.7,305.4,169.7z"/>
			<path class="st3" d="M314.1,166.6h0.5v7.5h-0.5v-1.8c-0.7,1.2-1.9,2-3.4,2c-2.1,0-3.9-1.8-3.9-3.9c0-2.1,1.7-3.9,3.9-3.9
				c1.5,0,2.8,0.8,3.4,2V166.6z M314.1,170.5c0-2-1.6-3.5-3.4-3.5c-1.9,0-3.4,1.6-3.4,3.4c0,1.9,1.5,3.5,3.4,3.5
				C312.6,173.8,314.1,172.4,314.1,170.5z"/>
			<path class="st3" d="M323.4,177.3c-4,0-7.1-3.2-7.1-7.2s3.1-7.2,7.1-7.2s7.4,2.9,7.4,6.9c0,1.9-0.7,4.5-2.9,4.5
				c-1,0-2.1-0.5-2.1-2V170c0-1.5-1.2-2.7-2.7-2.7s-2.7,1.2-2.7,2.7s1.2,2.7,2.7,2.7c0.5,0,1.2-0.2,1.6-0.5v0.5
				c-0.5,0.3-1,0.4-1.6,0.4c-1.7,0-3.1-1.4-3.1-3.1c0-1.8,1.4-3.1,3.1-3.1s3.1,1.4,3.1,3.1v2.3c0,1.2,0.8,1.6,1.6,1.6
				c1.8,0,2.4-2.4,2.4-4c0-3.7-3.2-6.4-6.9-6.4c-3.7,0-6.6,3-6.6,6.7s2.9,6.7,6.6,6.7h0.5v0.5L323.4,177.3L323.4,177.3z"/>
			<path class="st3" d="M339.5,166.6h0.5v6.5c0,3.7-1.6,4.8-4,4.8c-1.2,0-2.3-0.5-3.1-1.6l0.4-0.3c0.7,0.9,1.7,1.4,2.7,1.4
				c2.1,0,3.5-0.9,3.5-4.3v-0.8c-0.7,1.2-1.9,2-3.4,2c-2.1,0-3.9-1.8-3.9-3.9c0-2.1,1.7-3.9,3.9-3.9c1.5,0,2.8,0.8,3.4,2V166.6z
				 M339.5,170.5c0-2-1.6-3.5-3.4-3.5c-1.9,0-3.4,1.6-3.4,3.4c0,1.9,1.5,3.5,3.4,3.5C337.9,173.8,339.5,172.4,339.5,170.5z"/>
			<path class="st3" d="M354.2,169.7v4.4h-0.5v-4.4c0-1.7-1.1-2.8-2.6-2.8s-2.8,0.8-2.8,3.3v3.9h-0.5v-4.4c0-1.7-1.1-2.8-2.6-2.8
				c-1.4,0-2.7,0.8-2.8,2.9v4.3h-0.5v-7.5h0.5v1.6c0.4-1.3,1.6-1.8,2.8-1.8c1.4,0,2.5,0.8,2.9,2.2c0.4-1.7,1.9-2.2,3-2.2
				C352.9,166.5,354.2,167.7,354.2,169.7z"/>
			<path class="st3" d="M363,166.6h0.5v7.5H363v-1.8c-0.7,1.2-1.9,2-3.4,2c-2.1,0-3.9-1.8-3.9-3.9c0-2.1,1.7-3.9,3.9-3.9
				c1.5,0,2.8,0.8,3.4,2V166.6z M363,170.5c0-2-1.6-3.5-3.4-3.5c-1.9,0-3.4,1.6-3.4,3.4c0,1.9,1.5,3.5,3.4,3.5
				C361.4,173.8,363,172.4,363,170.5z"/>
			<path class="st3" d="M365.3,163.9c0-0.3,0.2-0.5,0.5-0.5s0.5,0.2,0.5,0.5s-0.2,0.4-0.5,0.4C365.6,164.3,365.3,164.2,365.3,163.9z
				 M365.6,174.1v-7.5h0.5v7.5H365.6z"/>
			<path class="st3" d="M368.2,174.1v-11.5h0.5v11.5H368.2z"/>
			<path class="st3" d="M370.6,173.8c0-0.3,0.2-0.5,0.5-0.5s0.5,0.2,0.5,0.5s-0.2,0.4-0.5,0.4C370.9,174.3,370.6,174.1,370.6,173.8z
				"/>
			<path class="st3" d="M372.7,170.4c0-2.4,1.8-3.9,3.9-3.9c0.9,0,1.8,0.3,2.4,0.8l-0.3,0.4c-0.6-0.4-1.4-0.7-2.2-0.7
				c-1.9,0-3.4,1.4-3.4,3.4c0,2.1,1.5,3.5,3.4,3.5c0.8,0,1.6-0.3,2.2-0.7l0.3,0.4c-0.7,0.5-1.5,0.8-2.4,0.8
				C374.5,174.3,372.7,172.7,372.7,170.4z"/>
			<path class="st3" d="M379.7,170.4c0-2.4,1.8-3.9,3.9-3.9s3.9,1.5,3.9,3.9s-1.8,4-3.9,4C381.4,174.3,379.7,172.7,379.7,170.4z
				 M387,170.4c0-2.1-1.6-3.4-3.4-3.4c-1.9,0-3.4,1.3-3.4,3.4c0,2.1,1.5,3.5,3.4,3.5C385.4,173.8,387,172.5,387,170.4z"/>
			<path class="st3" d="M401.2,169.7v4.4h-0.5v-4.4c0-1.7-1.1-2.8-2.6-2.8s-2.8,0.8-2.8,3.3v3.9h-0.5v-4.4c0-1.7-1.1-2.8-2.6-2.8
				c-1.4,0-2.7,0.8-2.8,2.9v4.3H389v-7.5h0.5v1.6c0.4-1.3,1.6-1.8,2.8-1.8c1.4,0,2.5,0.8,2.9,2.2c0.4-1.7,1.9-2.2,3-2.2
				C399.8,166.5,401.2,167.7,401.2,169.7z"/>
		</g>
	</g>
</g>
<g id="Layer_2_00000112620510455415512180000008652509853339118003_" class="st4">
	<g id="Layer_2_00000117645798434440190120000017476036304987917188_" class="st5">
		<text transform="matrix(1 0 0 1 105.9463 205.7916)" class="st2 st6 st7 st8">RESUME</text>
	</g>
</g>
</svg>
