<?xml version="1.0" encoding="utf-8"?>
<!-- Generator: Adobe Illustrator 27.2.0, SVG Export Plug-In . SVG Version: 6.00 Build 0)  -->
<svg version="1.1" id="Layer_1" xmlns="http://www.w3.org/2000/svg" xmlns:xlink="http://www.w3.org/1999/xlink" x="0px" y="0px"
	 viewBox="0 0 760 1316.5" style="enable-background:new 0 0 760 1316.5;" xml:space="preserve">
<style type="text/css">
	.st0{display:none;}
	.st1{display:inline;fill:#FFFFFF;}
	.st2{display:inline;}
	.st3{fill:#8E8C89;}
	.st4{fill:#010101;}
	.st5{fill:#2C51A3;}
	.st6{fill:none;stroke:#27499A;stroke-width:10;stroke-miterlimit:10;}
	.st7{display:inline;fill:#EBEBEA;}
	.st8{enable-background:new    ;}
	.st9{fill:#EBEBEA;}
	.st10{fill:#2F4796;stroke:#2F4897;stroke-width:0.25;stroke-miterlimit:10;}
</style>
<g class="st0">
	<circle class="st1" cx="150.9" cy="270.6" r="131.4"/>
	<g class="st2">
		<path class="st3" d="M150.9,398.1c-34,0-66.1-13.3-90.2-37.4s-37.4-56.1-37.4-90.2s13.3-66.1,37.4-90.2s56.1-37.4,90.2-37.4
			s66.1,13.3,90.2,37.4s37.4,56.1,37.4,90.2s-13.3,66.1-37.4,90.2C216.9,384.8,184.9,398.1,150.9,398.1z M150.9,144.4
			c-33.7,0-65.4,13.1-89.2,37s-37,55.5-37,89.2s13.1,65.4,37,89.2s55.5,37,89.2,37s65.4-13.1,89.2-37s37-55.5,37-89.2
			s-13.1-65.4-37-89.2S184.6,144.4,150.9,144.4z"/>
		<g>
			<g>
				<path class="st3" d="M77.4,321.2c0,3.1-2.4,5.5-5.4,5.5c-1.9,0-3.7-1.1-4.6-2.7v2.4h-1v-16.2h1v8.1c0.9-1.6,2.6-2.7,4.6-2.7
					C75,315.7,77.4,318.1,77.4,321.2z M76.4,321.2c0-2.5-2-4.6-4.4-4.6s-4.5,1.9-4.5,4.6c0,2.6,2.1,4.5,4.5,4.5
					C74.4,325.8,76.4,323.7,76.4,321.2z"/>
			</g>
			<g>
				<path class="st3" d="M86.6,316l-0.3,0.9c-0.5-0.2-0.9-0.2-1.3-0.2c-2.8,0-3.5,3.3-3.6,5.7v4.1h-1V316h1v2.9
					c0.4-1.8,1.7-3.1,3.6-3.1C85.5,315.7,86.1,315.8,86.6,316z"/>
			</g>
			<g>
				<path class="st3" d="M88.3,312.1c0-0.5,0.4-0.8,0.9-0.8s0.9,0.3,0.9,0.8c0,0.4-0.4,0.8-0.9,0.8S88.3,312.6,88.3,312.1z
					 M88.6,326.5V316h1v10.5H88.6z"/>
			</g>
			<g>
				<path class="st3" d="M102.6,316h1v10.5h-1V324c-0.9,1.6-2.6,2.7-4.6,2.7c-2.9,0-5.4-2.4-5.4-5.5c0-3,2.4-5.5,5.4-5.5
					c1.9,0,3.7,1.1,4.6,2.7V316L102.6,316z M102.6,321.3c0-2.7-2.1-4.6-4.5-4.6s-4.4,2.1-4.4,4.6s2,4.6,4.5,4.6
					C100.5,325.8,102.6,323.9,102.6,321.3z"/>
			</g>
			<g>
				<path class="st3" d="M116.4,320.4v6.1h-1v-6.1c0-2.2-1.4-3.6-3.3-3.6c-1.8,0-3.6,1.1-3.7,3.9v5.9h-1V316h1v2.1
					c0.6-1.7,2.3-2.4,3.8-2.4C114.6,315.7,116.4,317.5,116.4,320.4z"/>
			</g>
			<g>
				<path class="st3" d="M129.2,316h1v10.5h-1V324c-0.9,1.6-2.6,2.7-4.6,2.7c-2.9,0-5.4-2.4-5.4-5.5c0-3,2.4-5.5,5.4-5.5
					c1.9,0,3.7,1.1,4.6,2.7V316L129.2,316z M129.2,321.3c0-2.7-2.1-4.6-4.5-4.6s-4.4,2.1-4.4,4.6s2,4.6,4.5,4.6
					C127.1,325.8,129.2,323.9,129.2,321.3z"/>
			</g>
			<g>
				<path class="st3" d="M156.9,320.4v6.1h-1v-6.1c0-2.2-1.4-3.7-3.3-3.7c-2.1,0-3.6,1.2-3.6,4.3v5.4h-1v-6.1c0-2.2-1.4-3.6-3.3-3.6
					c-1.8,0-3.6,1.1-3.6,3.9v5.9h-1V316h1v2.1c0.6-1.7,2.2-2.4,3.8-2.4c1.8,0,3.3,1,3.9,2.8c0.7-2.2,2.7-2.8,4-2.8
					C155.1,315.7,156.9,317.5,156.9,320.4z"/>
			</g>
			<g>
				<path class="st3" d="M170.2,321.6h-9.4c0.2,2.5,1.9,4.2,4.3,4.2c1.6,0,2.9-0.8,3.7-2.1l0.9,0.4c-0.9,1.6-2.7,2.6-4.6,2.6
					c-2.9,0-5.3-2.2-5.3-5.5s2.4-5.5,5.3-5.5c3,0,5.2,2.2,5.2,5.5L170.2,321.6L170.2,321.6z M169.2,320.8c-0.2-2.5-1.8-4.1-4.2-4.1
					c-2.3,0-4.1,1.5-4.3,4.1H169.2z"/>
			</g>
			<g>
				<path class="st3" d="M182.3,310.3h1v16.2h-1v-2.3c-0.9,1.5-2.6,2.6-4.6,2.6c-3,0-5.4-2.4-5.4-5.5s2.4-5.5,5.4-5.5
					c1.9,0,3.6,1.1,4.6,2.6V310.3z M182.3,321.3c0-2.7-2.1-4.6-4.5-4.6s-4.5,2-4.5,4.6c0,2.5,2,4.6,4.5,4.6S182.3,323.9,182.3,321.3
					z"/>
			</g>
			<g>
				<path class="st3" d="M186.8,312.1c0-0.5,0.4-0.8,0.9-0.8s0.9,0.3,0.9,0.8c0,0.4-0.4,0.8-0.9,0.8
					C187.1,312.9,186.8,312.6,186.8,312.1z M187.1,326.5V316h1v10.5H187.1z"/>
			</g>
			<g>
				<path class="st3" d="M200.9,320.4v6.1h-1v-6.1c0-2.2-1.4-3.6-3.3-3.6c-1.8,0-3.6,1.1-3.7,3.9v5.9h-1V316h1v2.1
					c0.6-1.7,2.3-2.4,3.8-2.4C199.1,315.7,200.9,317.5,200.9,320.4z"/>
			</g>
			<g>
				<path class="st3" d="M213.7,316h1v10.5h-1V324c-0.9,1.6-2.6,2.7-4.6,2.7c-2.9,0-5.4-2.4-5.4-5.5c0-3,2.4-5.5,5.4-5.5
					c1.9,0,3.7,1.1,4.6,2.7V316L213.7,316z M213.7,321.3c0-2.7-2.1-4.6-4.5-4.6s-4.4,2.1-4.4,4.6s2,4.6,4.5,4.6
					C211.7,325.8,213.7,323.9,213.7,321.3z"/>
			</g>
		</g>
		<g>
			<path class="st4" d="M272.8,270.3c0-67-54.5-121.5-121.5-121.5S29.7,203.3,29.7,270.3c0,13.5,2.2,26.6,6.3,38.7
				c0.7-6.6,3.4-11,7.5-13.9c-1.8-8-2.8-16.3-2.8-24.8c0-61,49.6-110.5,110.5-110.5s110.5,49.6,110.5,110.5
				c0,20.4-5.5,39.5-15.2,55.9c-2.5,3.3-7,4.6-10.4,3.8c-3.8-0.9-5.8-3.9-5.8-8.7v-17.5l0,0v-86.2h-14.2L186.2,288l-30.4-70.4h-14.3
				v86.1h10v-72.4l28.9,68.4h10l29-68.4v72.4l0,0v17.5c0,10,5.5,17.4,14.3,19.4c1.5,0.3,3.1,0.5,4.7,0.5c7.9,0,15.5-4.5,19.1-11.9
				l0,0C267.2,311.9,272.8,291.8,272.8,270.3z"/>
		</g>
		<g>
			<g>
				<path class="st5" d="M234.3,343.2c-20.3,23.1-50,37.7-83,37.7c-45.2,0-84.2-27.3-101.2-66.3c-0.8-2.3-1.2-5.3,0.3-7.6
					c1.4-2,4.2-3.1,7.7-3.1h8.5l0,0h25.8c7.3,0,15-0.2,22.2-4.9c6.1-4,10.2-10.5,10.2-19.6c0-20.1-19.7-21.4-19.7-21.4
					s14.6-1.7,14.6-19.1c0-8.6-3.6-14.3-9.5-17.6c-6.1-3.4-12.5-3.4-19.2-3.4H66.4V293H58c-7.2,0-13.3,2.9-16.7,7.9
					s-3.9,11.6-1.3,18.4l1,2.1c19.3,41.6,61.5,70.5,110.3,70.5c41.1,0,77.5-20.5,99.5-51.8C245.7,342.9,240.3,344,234.3,343.2z
					 M77.5,226h12.4c4.1,0,8.2,0,12,2.1c4.1,2.3,6.2,6.7,6.2,12.2c0,6.4-2.7,10.1-6.4,12.2c-3.8,2.1-7.4,2.1-11.6,2.1H77.5V226
					L77.5,226z M77.5,263.1h13.3c4.3,0,9.4,0,14.6,2.9c5.4,3,7.7,7.6,7.7,13.3c0,5.8-2.4,10.3-6.5,13.1c-4.9,3.3-10.3,3.3-14.6,3.3
					H77.5V263.1z"/>
			</g>
		</g>
	</g>
</g>
<path class="st6" d="M781.4,100.1H760H405.9c-28,0-55.9,19-55.9,55.9v108.5"/>
<path class="st6" d="M250.5,447.1H107.6c-28,0-55.9,19-55.9,55.9v217.5"/>
<path class="st6" d="M349.9,216v175.1c0,36.9-27.9,55.9-55.9,55.9h-76.9"/>
<path class="st6" d="M51.7,642.2l0,253.7V1242c0,36.9-27.9,55.9-55.9,55.9"/>
<g class="st0">
	<path class="st7" d="M676.1,818.3h-16.2H264.5h-23.3v23.3v79.8V992v58.9v9.6c0,12.8,10.5,23.3,23.3,23.3H276h400.1h23.3v-23.3
		v-74.1v-70.6V858v-16.4C699.4,828.7,688.9,818.3,676.1,818.3z"/>
</g>
<path class="st6" d="M-3,55.9h702.2c28,0,55.9-19,55.9-55.9"/>
<g id="Layer_2_00000055708328275367571710000009479771166177285261_">
	<g class="st8">
		<path class="st9" d="M452.3,180l-11.5-17.7h-2.3V180h-11.5v-50.4h20.6c11.7,0,16.9,8.3,16.9,16.7c0,7.1-5.3,13.9-11.8,15.4
			l12.9,18.4H452.3z M438.4,139.6v13.6h7.3c5,0,7.2-3.3,7.2-6.6c0-3.4-2.3-7-7-7H438.4z"/>
		<path class="st9" d="M482.4,170h21.5v10h-33v-50.4h32.3v10h-20.8V150h18.2v10.3h-18.2L482.4,170L482.4,170z"/>
		<path class="st9" d="M507.7,165.3h11.5c0,3.2,3.2,5.7,7.1,5.7c3.7,0,6.6-1.9,6.6-5.2c0-1.9-1.1-3.8-5.6-5.3l-6-1.8
			c-11.1-3-13.2-9.8-13.2-14.5c0-9.1,7.8-15.4,17.7-15.4c9.7,0,17,5.8,17,15.5h-11.4c0-3-1.8-5.6-5.8-5.6c-3.6,0-5.9,2.4-5.9,5.2
			c0,1,0.3,3.3,5,4.6l5.3,1.7c7.1,2.2,14.5,5.8,14.5,15c0,10.8-9.3,15.6-18.6,15.6C515.2,180.8,507.7,174.5,507.7,165.3z"/>
		<path class="st9" d="M549.8,162v-32.4h11.5v31.5c0,6.3,4,8.8,8.2,8.8c4.1,0,8.1-2.5,8.1-8.8v-31.5H589v32.3
			c0,11.6-9.2,18.9-19.6,18.9C559,180.8,549.8,173.6,549.8,162z"/>
		<path class="st9" d="M655.5,180h-11.8l-3.3-28.6l-11,22.9h-8.8l-11-22.8l-3.4,28.6h-11.8l6.2-50.3h9.6l14.7,31.5l14.5-31.5h9.8
			L655.5,180z"/>
		<path class="st9" d="M672.9,170h21.5v10h-33v-50.4h32.3v10h-20.8V150h18.2v10.3h-18.2V170z"/>
	</g>
</g>
<g>
	<g>
		<g class="st8">
			<path class="st10" d="M426.9,195.8c0-1.9,1.5-3.6,3.4-3.6c1.9,0,3.5,1.6,3.5,3.6c0,1.9-1.5,3.6-3.5,3.6
				C428.5,199.4,426.9,197.8,426.9,195.8z M433.6,195.8c0-1.8-1.4-3.3-3.2-3.3c-1.8,0-3.2,1.5-3.2,3.3c0,1.8,1.4,3.3,3.2,3.3
				C432.2,199,433.6,197.6,433.6,195.8z"/>
			<path class="st10" d="M439.2,194.5h0.3v4.7h-0.3v-1.1c-0.4,0.8-1.2,1.3-2.1,1.3c-1.3,0-2.4-1.1-2.4-2.4c0-1.3,1.1-2.4,2.4-2.4
				c0.9,0,1.8,0.5,2.1,1.3V194.5z M439.2,197c0-1.3-1-2.2-2.1-2.2c-1.2,0-2.1,1-2.1,2.1c0,1.2,0.9,2.2,2.1,2.2
				C438.2,199,439.2,198.2,439.2,197z"/>
			<path class="st10" d="M444.2,199.2h-0.4l-2.7-2.6v2.6h-0.3V192h0.3v4.6l1.9-2h0.4l-2,2.1L444.2,199.2z"/>
			<path class="st10" d="M448.5,192h0.3v7.2h-0.3v-1.1c-0.4,0.8-1.2,1.3-2.1,1.3c-1.3,0-2.4-1.1-2.4-2.4c0-1.3,1.1-2.4,2.4-2.4
				c0.9,0,1.8,0.5,2.1,1.3V192z M448.5,197c0-1.3-1-2.2-2.1-2.2c-1.2,0-2.1,1-2.1,2.1c0,1.2,0.9,2.2,2.1,2.2
				C447.6,199,448.5,198.2,448.5,197z"/>
			<path class="st10" d="M454.4,194.5h0.3v4.7h-0.3v-1.1c-0.4,0.8-1.2,1.3-2.1,1.3c-1.3,0-2.4-1.1-2.4-2.4c0-1.3,1.1-2.4,2.4-2.4
				c0.9,0,1.8,0.5,2.1,1.3V194.5z M454.4,197c0-1.3-1-2.2-2.1-2.2c-1.2,0-2.1,1-2.1,2.1c0,1.2,0.9,2.2,2.1,2.2
				C453.5,199,454.4,198.2,454.4,197z"/>
			<path class="st10" d="M456.1,199.2V192h0.3v7.2H456.1z"/>
			<path class="st10" d="M462,197h-4.3c0.1,1.2,0.9,2.1,2.1,2.1c0.8,0,1.4-0.4,1.8-1l0.3,0.2c-0.4,0.7-1.2,1.1-2,1.1
				c-1.3,0-2.4-1-2.4-2.5s1.1-2.4,2.4-2.4s2.3,1,2.3,2.4V197L462,197z M461.7,196.7c-0.1-1.2-0.9-2-2-2c-1.1,0-1.9,0.8-2.1,2H461.7z
				"/>
			<path class="st10" d="M462,201c0.5-0.8,0.8-1.9,0.8-2.9h0.3c0,1.1-0.3,2.3-0.9,3.1L462,201z"/>
			<path class="st10" d="M469.5,192.3c1.4,0,1.9,1,1.9,2s-0.5,2-1.9,2h-2.3v2.8h-0.3v-6.9L469.5,192.3L469.5,192.3z M469.5,196.1
				c1.2,0,1.6-0.8,1.6-1.8c0-0.9-0.4-1.8-1.6-1.8h-2.4v3.4L469.5,196.1L469.5,196.1z"/>
			<path class="st10" d="M476.4,199.2l-0.8-1.9h-3.5l-0.8,1.9h-0.3l2.6-6.9h0.3l2.6,6.9H476.4z M472.4,197h3.3l-1.6-4.3L472.4,197z"
				/>
			<path class="st10" d="M480.6,192.5L480.6,192.5v6.8h-0.3V193l-1.5,0.7v-0.3L480.6,192.5z"/>
			<path class="st10" d="M486.1,197.2c0,1.3-0.9,2.1-2.2,2.1c-0.9,0-1.8-0.5-2.2-1.3l0.3-0.1c0.4,0.6,1.1,1.1,1.9,1.1
				c1.1,0,1.9-0.8,1.9-1.8c0-1-0.8-1.7-1.8-1.7c-0.6,0-1.3,0.2-1.9,0.5l-0.1-0.2l0.6-3.3h3.1v0.3h-2.8l-0.5,2.8
				c0.6-0.3,1.2-0.4,1.8-0.4C485.3,195.2,486.1,196,486.1,197.2z"/>
			<path class="st10" d="M487,195.9c0-1.9,0.5-3.4,2.3-3.4s2.3,1.5,2.3,3.4c0,1.9-0.4,3.4-2.3,3.4C487.5,199.4,487,197.8,487,195.9z
				 M491.3,195.9c0-1.8-0.4-3.1-2-3.1s-2,1.4-2,3.1c0,1.7,0.4,3.1,2,3.1S491.3,197.7,491.3,195.9z"/>
			<path class="st10" d="M492.2,192.6h4.1v0.1l-3.6,6.6h-0.3l3.5-6.3h-3.6L492.2,192.6L492.2,192.6z"/>
			<path class="st10" d="M498.1,192.5L498.1,192.5v6.8h-0.3V193l-1.5,0.7v-0.3L498.1,192.5z"/>
		</g>
	</g>
</g>
<g>
	<g>
		<g class="st8">
			<path class="st10" d="M643.4,197.3c0,1.1-1,2.1-2.3,2.1c-1.3,0-2.3-0.9-2.3-2.1c0-0.9,0.6-1.6,1.5-1.9c-0.6-0.3-0.9-0.8-0.9-1.4
				c0-0.9,0.7-1.5,1.7-1.5c1,0,1.7,0.7,1.7,1.5c0,0.6-0.4,1.1-0.9,1.4C642.8,195.7,643.4,196.4,643.4,197.3z M643.1,197.3
				c0-0.9-0.8-1.8-2-1.8c-1.2,0-1.9,0.8-1.9,1.8c0,1,0.8,1.8,1.9,1.8S643.1,198.3,643.1,197.3z M641.1,195.3c0.8,0,1.4-0.6,1.4-1.3
				c0-0.7-0.6-1.3-1.4-1.3c-0.8,0-1.4,0.6-1.4,1.3S640.3,195.2,641.1,195.3z"/>
			<path class="st10" d="M648.7,197.5v0.3h-1.1v1.4h-0.3v-1.4h-3.6v-0.1l3.8-5.1h0.1v4.9H648.7z M644.3,197.5h3.1v-4.2L644.3,197.5z
				"/>
			<path class="st10" d="M653.6,197.2c0,1.3-0.9,2.1-2.2,2.1c-0.9,0-1.8-0.5-2.2-1.3l0.3-0.1c0.4,0.6,1.1,1.1,1.9,1.1
				c1.1,0,1.9-0.8,1.9-1.8c0-1-0.8-1.7-1.8-1.7c-0.6,0-1.3,0.2-1.9,0.5l-0.1-0.2l0.6-3.3h3.1v0.3h-2.8l-0.5,2.8
				c0.6-0.3,1.2-0.4,1.8-0.4C652.7,195.2,653.6,196,653.6,197.2z"/>
			<path class="st10" d="M661.1,197.2c0,0.9-0.6,2.2-2.2,2.2c-1.4,0-2.2-0.9-2.2-2.6c0-1.3,0-4.3,2.4-4.3c0.8,0,1.4,0.3,1.8,1.1
				l-0.3,0.1c-0.3-0.8-0.9-1-1.6-1c-1.8,0-2.1,1.9-2.1,3.3c0.3-0.7,1.3-0.9,1.9-0.9C660.2,195.1,661.1,196,661.1,197.2z
				 M660.8,197.2c0-0.9-0.8-1.8-1.8-1.8c-0.7,0-1.9,0.3-1.9,1.5c0,1.5,0.9,2.1,1.9,2.1C660.1,199,660.8,198.2,660.8,197.2z"/>
			<path class="st10" d="M666.4,197.5v0.3h-1.1v1.4H665v-1.4h-3.6v-0.1l3.8-5.1h0.1v4.9H666.4z M662,197.5h3.1v-4.2L662,197.5z"/>
			<path class="st10" d="M668.9,199.4c-0.8,0-1.4-0.3-1.8-1.1l0.3-0.1c0.3,0.8,0.9,1,1.6,1c1.8,0,2.1-2,2.1-3.3
				c-0.3,0.7-1.3,0.9-1.9,0.9c-1.3,0-2.1-0.9-2.1-2.1c0-0.9,0.6-2.1,2.2-2.1c1.4,0,2.2,0.9,2.2,2.6
				C671.4,196.3,671.4,199.4,668.9,199.4z M671.1,194.9c0-1.5-0.9-2.1-1.9-2.1c-1.2,0-1.9,0.9-1.9,1.9c0,0.9,0.8,1.8,1.8,1.8
				C669.8,196.4,671,196.1,671.1,194.9z"/>
			<path class="st10" d="M678.8,197.4c0,1.1-1,1.9-2.3,1.9c-0.9,0-1.7-0.5-2.1-1.3l0.3-0.1c0.3,0.6,1,1.1,1.8,1.1
				c1.2,0,2.1-0.7,2.1-1.6s-0.8-1.6-1.7-1.6h-0.7v-0.3h0.7c0.8,0,1.3-0.5,1.3-1.3c0-0.8-0.6-1.4-1.6-1.4c-0.6,0-1.3,0.3-1.5,0.8
				l-0.3-0.1c0.3-0.6,1-0.9,1.8-0.9c1.2,0,1.9,0.7,1.9,1.7c0,0.6-0.4,1.2-0.9,1.4C678.2,195.8,678.8,196.5,678.8,197.4z"/>
			<path class="st10" d="M684.1,197.2c0,0.9-0.6,2.2-2.2,2.2c-1.4,0-2.2-0.9-2.2-2.6c0-1.3,0-4.3,2.4-4.3c0.8,0,1.4,0.3,1.8,1.1
				l-0.3,0.1c-0.3-0.8-0.9-1-1.6-1c-1.8,0-2.1,1.9-2.1,3.3c0.3-0.7,1.3-0.9,1.9-0.9C683.2,195.1,684.1,196,684.1,197.2z
				 M683.8,197.2c0-0.9-0.8-1.8-1.8-1.8c-0.7,0-1.9,0.3-1.9,1.5c0,1.5,0.9,2.1,1.9,2.1C683,199,683.8,198.2,683.8,197.2z"/>
			<path class="st10" d="M689.4,197.3c0,1.1-1,2.1-2.3,2.1s-2.3-0.9-2.3-2.1c0-0.9,0.6-1.6,1.5-1.9c-0.6-0.3-0.9-0.8-0.9-1.4
				c0-0.9,0.7-1.5,1.7-1.5c1,0,1.7,0.7,1.7,1.5c0,0.6-0.4,1.1-0.9,1.4C688.8,195.7,689.4,196.4,689.4,197.3z M689.1,197.3
				c0-0.9-0.8-1.8-2-1.8s-1.9,0.8-1.9,1.8c0,1,0.8,1.8,1.9,1.8S689.1,198.3,689.1,197.3z M687.1,195.3c0.8,0,1.4-0.6,1.4-1.3
				c0-0.7-0.6-1.3-1.4-1.3s-1.4,0.6-1.4,1.3C685.7,194.7,686.3,195.2,687.1,195.3z"/>
			<path class="st10" d="M694.4,197.4c0,1.1-1,1.9-2.3,1.9c-0.9,0-1.7-0.5-2.1-1.3l0.3-0.1c0.3,0.6,1,1.1,1.8,1.1
				c1.2,0,2.1-0.7,2.1-1.6s-0.8-1.6-1.7-1.6h-0.7v-0.3h0.7c0.8,0,1.3-0.5,1.3-1.3c0-0.8-0.6-1.4-1.6-1.4c-0.6,0-1.3,0.3-1.5,0.8
				l-0.3-0.1c0.3-0.6,1-0.9,1.8-0.9c1.2,0,1.9,0.7,1.9,1.7c0,0.6-0.4,1.2-0.9,1.4C693.8,195.8,694.4,196.5,694.4,197.4z"/>
		</g>
	</g>
</g>
<g>
	<g>
		<g class="st8">
			<path class="st10" d="M524.3,196.9c0,1.4-1.1,2.4-2.4,2.4c-0.9,0-1.8-0.5-2.1-1.3v1.1h-0.3V192h0.3v3.7c0.4-0.8,1.2-1.3,2.1-1.3
				C523.3,194.5,524.3,195.5,524.3,196.9z M524,196.9c0-1.2-0.9-2.1-2.1-2.1c-1.2,0-2.1,0.9-2.1,2.2c0,1.2,1,2.1,2.1,2.1
				C523.1,199,524,198.1,524,196.9z"/>
			<path class="st10" d="M528,194.5l-0.1,0.3c-0.3-0.1-0.4-0.1-0.6-0.1c-1.4,0-1.6,1.6-1.7,2.6v1.8h-0.3v-4.7h0.3v1.3
				c0.2-0.8,0.8-1.4,1.7-1.4C527.5,194.5,527.7,194.5,528,194.5z"/>
			<path class="st10" d="M528.3,192.8c0-0.2,0.1-0.3,0.3-0.3c0.2,0,0.3,0.1,0.3,0.3s-0.1,0.3-0.3,0.3
				C528.5,193.1,528.3,193,528.3,192.8z M528.5,199.2v-4.7h0.3v4.7H528.5z"/>
			<path class="st10" d="M528.6,201.5v-0.3h0.3c0.9,0,1.3-0.8,1.3-1.7v-5h0.3v5c0,1.1-0.4,1.9-1.6,1.9L528.6,201.5L528.6,201.5z
				 M530,192.8c0-0.2,0.1-0.3,0.3-0.3s0.3,0.1,0.3,0.3s-0.1,0.3-0.3,0.3C530.1,193.1,530,193,530,192.8z"/>
			<path class="st10" d="M539.4,196.5v2.8h-0.3v-2.8c0-1.1-0.7-1.8-1.6-1.8s-1.8,0.5-1.8,2.1v2.4h-0.3v-2.8c0-1.1-0.7-1.8-1.6-1.8
				c-0.9,0-1.7,0.5-1.8,1.8v2.7h-0.3v-4.7h0.3v1c0.3-0.8,1-1.1,1.8-1.1c0.9,0,1.6,0.5,1.8,1.4c0.3-1.1,1.2-1.4,1.9-1.4
				C538.6,194.5,539.4,195.2,539.4,196.5z"/>
			<path class="st10" d="M545,197h-4.3c0.1,1.2,0.9,2.1,2.1,2.1c0.8,0,1.4-0.4,1.8-1l0.3,0.2c-0.4,0.7-1.2,1.1-2,1.1
				c-1.3,0-2.4-1-2.4-2.5s1.1-2.4,2.4-2.4c1.3,0,2.3,1,2.3,2.4V197L545,197z M544.7,196.7c-0.1-1.2-0.9-2-2-2s-1.9,0.8-2.1,2H544.7z
				"/>
			<path class="st10" d="M550.1,192h0.3v7.2h-0.3v-1.1c-0.4,0.8-1.2,1.3-2.1,1.3c-1.3,0-2.4-1.1-2.4-2.4c0-1.3,1.1-2.4,2.4-2.4
				c0.9,0,1.8,0.5,2.1,1.3V192z M550.1,197c0-1.3-1-2.2-2.1-2.2c-1.2,0-2.1,1-2.1,2.1c0,1.2,0.9,2.2,2.1,2.2
				C549.2,199,550.1,198.2,550.1,197z"/>
			<path class="st10" d="M551.6,192.8c0-0.2,0.1-0.3,0.3-0.3c0.2,0,0.3,0.1,0.3,0.3s-0.1,0.3-0.3,0.3
				C551.8,193.1,551.6,193,551.6,192.8z M551.8,199.2v-4.7h0.3v4.7H551.8z"/>
			<path class="st10" d="M557.4,196.5v2.8h-0.3v-2.8c0-1.1-0.7-1.8-1.6-1.8c-0.9,0-1.7,0.5-1.8,1.8v2.7h-0.3v-4.7h0.3v1
				c0.3-0.8,1.1-1.1,1.8-1.1C556.5,194.5,557.4,195.2,557.4,196.5z"/>
			<path class="st10" d="M562.9,194.5h0.3v4.7h-0.3v-1.1c-0.4,0.8-1.2,1.3-2.1,1.3c-1.3,0-2.4-1.1-2.4-2.4c0-1.3,1.1-2.4,2.4-2.4
				c0.9,0,1.8,0.5,2.1,1.3V194.5z M562.9,197c0-1.3-1-2.2-2.1-2.2c-1.2,0-2.1,1-2.1,2.1c0,1.2,0.9,2.2,2.1,2.2
				C561.9,199,562.9,198.2,562.9,197z"/>
			<path class="st10" d="M568.7,201.2c-2.5,0-4.5-2-4.5-4.5c0-2.5,1.9-4.5,4.5-4.5c2.5,0,4.6,1.8,4.6,4.3c0,1.2-0.4,2.8-1.8,2.8
				c-0.6,0-1.3-0.3-1.3-1.3v-1.4c0-0.9-0.8-1.7-1.7-1.7c-0.9,0-1.7,0.8-1.7,1.7s0.8,1.7,1.7,1.7c0.3,0,0.8-0.1,1-0.3v0.3
				c-0.3,0.2-0.6,0.3-1,0.3c-1.1,0-1.9-0.9-1.9-1.9c0-1.1,0.9-1.9,1.9-1.9c1.1,0,1.9,0.9,1.9,1.9v1.4c0,0.8,0.5,1,1,1
				c1.1,0,1.5-1.5,1.5-2.5c0-2.3-2-4-4.3-4c-2.3,0-4.1,1.9-4.1,4.2c0,2.3,1.8,4.2,4.1,4.2h0.3v0.3L568.7,201.2L568.7,201.2z"/>
			<path class="st10" d="M578.8,194.5h0.3v4.1c0,2.3-1,3-2.5,3c-0.8,0-1.4-0.3-1.9-1l0.3-0.2c0.4,0.6,1.1,0.9,1.7,0.9
				c1.3,0,2.2-0.6,2.2-2.7v-0.5c-0.4,0.8-1.2,1.3-2.1,1.3c-1.3,0-2.4-1.1-2.4-2.4c0-1.3,1.1-2.4,2.4-2.4c0.9,0,1.8,0.5,2.1,1.3
				V194.5z M578.8,197c0-1.3-1-2.2-2.1-2.2c-1.2,0-2.1,1-2.1,2.1c0,1.2,0.9,2.2,2.1,2.2C577.8,199,578.8,198.2,578.8,197z"/>
			<path class="st10" d="M588,196.5v2.8h-0.3v-2.8c0-1.1-0.7-1.8-1.6-1.8s-1.8,0.5-1.8,2.1v2.4H584v-2.8c0-1.1-0.7-1.8-1.6-1.8
				c-0.9,0-1.7,0.5-1.8,1.8v2.7h-0.3v-4.7h0.3v1c0.3-0.8,1-1.1,1.8-1.1c0.9,0,1.6,0.5,1.8,1.4c0.3-1.1,1.2-1.4,1.9-1.4
				C587.2,194.5,588,195.2,588,196.5z"/>
			<path class="st10" d="M593.5,194.5h0.3v4.7h-0.3v-1.1c-0.4,0.8-1.2,1.3-2.1,1.3c-1.3,0-2.4-1.1-2.4-2.4c0-1.3,1.1-2.4,2.4-2.4
				c0.9,0,1.8,0.5,2.1,1.3V194.5z M593.5,197c0-1.3-1-2.2-2.1-2.2c-1.2,0-2.1,1-2.1,2.1c0,1.2,0.9,2.2,2.1,2.2
				C592.5,199,593.5,198.2,593.5,197z"/>
			<path class="st10" d="M595,192.8c0-0.2,0.1-0.3,0.3-0.3c0.2,0,0.3,0.1,0.3,0.3s-0.1,0.3-0.3,0.3C595.2,193.1,595,193,595,192.8z
				 M595.2,199.2v-4.7h0.3v4.7H595.2z"/>
			<path class="st10" d="M596.8,199.2V192h0.3v7.2H596.8z"/>
			<path class="st10" d="M598.3,199c0-0.2,0.1-0.3,0.3-0.3s0.3,0.1,0.3,0.3s-0.1,0.3-0.3,0.3C598.5,199.4,598.3,199.2,598.3,199z"/>
			<path class="st10" d="M599.6,196.9c0-1.5,1.1-2.4,2.4-2.4c0.6,0,1.1,0.2,1.5,0.5l-0.2,0.3c-0.4-0.3-0.9-0.4-1.4-0.4
				c-1.2,0-2.1,0.9-2.1,2.1c0,1.3,0.9,2.2,2.1,2.2c0.5,0,1-0.2,1.4-0.4l0.2,0.3c-0.4,0.3-0.9,0.5-1.5,0.5
				C600.7,199.4,599.6,198.4,599.6,196.9z"/>
			<path class="st10" d="M604,196.9c0-1.5,1.1-2.4,2.4-2.4c1.3,0,2.4,0.9,2.4,2.4c0,1.5-1.1,2.5-2.4,2.5
				C605.1,199.4,604,198.4,604,196.9z M608.6,196.9c0-1.3-1-2.1-2.1-2.1c-1.2,0-2.1,0.8-2.1,2.1c0,1.3,0.9,2.2,2.1,2.2
				C607.6,199,608.6,198.2,608.6,196.9z"/>
			<path class="st10" d="M617.5,196.5v2.8h-0.3v-2.8c0-1.1-0.7-1.8-1.6-1.8c-0.9,0-1.8,0.5-1.8,2.1v2.4h-0.3v-2.8
				c0-1.1-0.7-1.8-1.6-1.8c-0.9,0-1.7,0.5-1.8,1.8v2.7h-0.3v-4.7h0.3v1c0.3-0.8,1-1.1,1.8-1.1c0.9,0,1.6,0.5,1.8,1.4
				c0.3-1.1,1.2-1.4,1.9-1.4C616.6,194.5,617.5,195.2,617.5,196.5z"/>
		</g>
	</g>
</g>
</svg>
