<?xml version="1.0" encoding="utf-8"?>
<!-- Generator: Adobe Illustrator 27.2.0, SVG Export Plug-In . SVG Version: 6.00 Build 0)  -->
<svg version="1.1" id="Layer_1" xmlns="http://www.w3.org/2000/svg" xmlns:xlink="http://www.w3.org/1999/xlink" x="0px" y="0px"
	 viewBox="0 0 760 515.5" style="enable-background:new 0 0 760 515.5;" xml:space="preserve">
<style type="text/css">
	.st0{fill:#EBEBEA;}
	.st1{fill:none;stroke:#27499A;stroke-width:10;stroke-miterlimit:10;}
</style>
<path class="st0" d="M242.9,308V160.9v-37.5h37.5H400h113.8h93.1h26.6c20.6,0,37.5,16.9,37.5,37.5v26.2V308"/>
<path class="st0" d="M36,282.5v95v15.6c0,20.6,16.9,37.5,37.5,37.5H92h313.3V262.5"/>
<g>
	<path class="st0" d="M78.6,76.1H51.4v14.2H73v13.3H51.4v26.5H36V62.7h42.6C78.6,62.7,78.6,76.1,78.6,76.1z"/>
	<path class="st0" d="M99.6,116.6h28.7V130h-44V62.7h43.2v13.4H99.7V90h24.4v13.8H99.7L99.6,116.6L99.6,116.6z"/>
	<path class="st0" d="M177.1,130l-5.1-15.6h-23.6l-5,15.6H127l24.9-67.3h16.7l24.8,67.3H177.1z M152.5,101.1h15.1L160,77.4
		L152.5,101.1z"/>
	<path class="st0" d="M234.5,62.7v13.4h-17.8V130h-15.3V76.1h-17.8V62.7H234.5z"/>
	<path class="st0" d="M238.1,106V62.7h15.3v42.1c0,8.5,5.4,11.8,10.9,11.8s10.8-3.3,10.8-11.8V62.7h15.3V106
		c0,15.5-12.3,25.2-26.2,25.2C250.5,131.2,238.1,121.5,238.1,106z"/>
	<path class="st0" d="M333.8,130l-15.4-23.6h-3.2V130h-15.3V62.7h27.5c15.6,0,22.7,11.1,22.7,22.3c0,9.5-7,18.6-15.7,20.5l17.3,24.5
		H333.8z M315.2,76.1v18.2h9.8c6.7,0,9.7-4.4,9.7-8.9s-3-9.3-9.3-9.3C325.4,76.1,315.2,76.1,315.2,76.1z"/>
	<path class="st0" d="M372.6,116.6h28.7V130h-44V62.7h43.2v13.4h-27.8V90h24.4v13.8h-24.4v12.8L372.6,116.6L372.6,116.6z"/>
	<path class="st0" d="M435,62.7c19.4,0,30.7,14.6,30.7,33.8c0,19-11.2,33.5-30.7,33.5h-26.6V62.7H435z M435,116.6
		c10.1,0,15.2-9.7,15.2-20.1c0-10.5-5.2-20.4-15.2-20.4h-11.2v40.5H435z"/>
</g>
<rect x="36" y="123.4" class="st0" width="429.6" height="223.1"/>
<rect x="242.2" y="207.4" class="st0" width="429.6" height="223.1"/>
<path class="st1" d="M0,19.8h650.2c28,0,55.9,19,55.9,55.9v354.2c0,36.9,27.9,55.9,55.9,55.9"/>
</svg>
