<?xml version="1.0" encoding="utf-8"?>
<!-- Generator: Adobe Illustrator 27.2.0, SVG Export Plug-In . SVG Version: 6.00 Build 0)  -->
<svg version="1.1" id="Layer_1" xmlns="http://www.w3.org/2000/svg" xmlns:xlink="http://www.w3.org/1999/xlink" x="0px" y="0px"
	 viewBox="0 0 760 1000" style="enable-background:new 0 0 760 1000;" xml:space="preserve">
<style type="text/css">
	.st0{display:none;}
	.st1{display:inline;fill:#FFFFFF;}
	.st2{display:inline;}
	.st3{fill:#8E8C89;}
	.st4{fill:#010101;}
	.st5{fill:#2C51A3;}
	.st6{enable-background:new    ;}
	.st7{fill:#EBEBEA;}
	.st8{fill:#2F4796;}
	.st9{fill:none;stroke:#27499A;stroke-width:10;stroke-miterlimit:10;}
	.st10{display:inline;fill:#EBEBEA;}
	.st11{fill:#FFFFFF;}
</style>
<g class="st0">
	<circle class="st1" cx="150.9" cy="270.6" r="131.4"/>
	<g class="st2">
		<path class="st3" d="M150.9,398.1c-34,0-66.1-13.3-90.2-37.4s-37.4-56.1-37.4-90.2s13.3-66.1,37.4-90.2s56.1-37.4,90.2-37.4
			s66.1,13.3,90.2,37.4s37.4,56.1,37.4,90.2s-13.3,66.1-37.4,90.2C216.9,384.8,184.9,398.1,150.9,398.1z M150.9,144.4
			c-33.7,0-65.4,13.1-89.2,37s-37,55.5-37,89.2s13.1,65.4,37,89.2s55.5,37,89.2,37s65.4-13.1,89.2-37s37-55.5,37-89.2
			s-13.1-65.4-37-89.2S184.6,144.4,150.9,144.4z"/>
		<g>
			<g>
				<path class="st3" d="M77.4,321.2c0,3.1-2.4,5.5-5.4,5.5c-1.9,0-3.7-1.1-4.6-2.7v2.4h-1v-16.2h1v8.1c0.9-1.6,2.6-2.7,4.6-2.7
					C75,315.7,77.4,318.1,77.4,321.2z M76.4,321.2c0-2.5-2-4.6-4.4-4.6s-4.5,1.9-4.5,4.6c0,2.6,2.1,4.5,4.5,4.5
					C74.4,325.8,76.4,323.7,76.4,321.2z"/>
			</g>
			<g>
				<path class="st3" d="M86.6,316l-0.3,0.9c-0.5-0.2-0.9-0.2-1.3-0.2c-2.8,0-3.5,3.3-3.6,5.7v4.1h-1V316h1v2.9
					c0.4-1.8,1.7-3.1,3.6-3.1C85.5,315.7,86.1,315.8,86.6,316z"/>
			</g>
			<g>
				<path class="st3" d="M88.3,312.1c0-0.5,0.4-0.8,0.9-0.8s0.9,0.3,0.9,0.8c0,0.4-0.4,0.8-0.9,0.8S88.3,312.6,88.3,312.1z
					 M88.6,326.5V316h1v10.5H88.6z"/>
			</g>
			<g>
				<path class="st3" d="M102.6,316h1v10.5h-1V324c-0.9,1.6-2.6,2.7-4.6,2.7c-2.9,0-5.4-2.4-5.4-5.5c0-3,2.4-5.5,5.4-5.5
					c1.9,0,3.7,1.1,4.6,2.7V316L102.6,316z M102.6,321.3c0-2.7-2.1-4.6-4.5-4.6s-4.4,2.1-4.4,4.6s2,4.6,4.5,4.6
					C100.5,325.8,102.6,323.9,102.6,321.3z"/>
			</g>
			<g>
				<path class="st3" d="M116.4,320.4v6.1h-1v-6.1c0-2.2-1.4-3.6-3.3-3.6c-1.8,0-3.6,1.1-3.7,3.9v5.9h-1V316h1v2.1
					c0.6-1.7,2.3-2.4,3.8-2.4C114.6,315.7,116.4,317.5,116.4,320.4z"/>
			</g>
			<g>
				<path class="st3" d="M129.2,316h1v10.5h-1V324c-0.9,1.6-2.6,2.7-4.6,2.7c-2.9,0-5.4-2.4-5.4-5.5c0-3,2.4-5.5,5.4-5.5
					c1.9,0,3.7,1.1,4.6,2.7V316L129.2,316z M129.2,321.3c0-2.7-2.1-4.6-4.5-4.6s-4.4,2.1-4.4,4.6s2,4.6,4.5,4.6
					C127.1,325.8,129.2,323.9,129.2,321.3z"/>
			</g>
			<g>
				<path class="st3" d="M156.9,320.4v6.1h-1v-6.1c0-2.2-1.4-3.7-3.3-3.7c-2.1,0-3.6,1.2-3.6,4.3v5.4h-1v-6.1c0-2.2-1.4-3.6-3.3-3.6
					c-1.8,0-3.6,1.1-3.6,3.9v5.9h-1V316h1v2.1c0.6-1.7,2.2-2.4,3.8-2.4c1.8,0,3.3,1,3.9,2.8c0.7-2.2,2.7-2.8,4-2.8
					C155.1,315.7,156.9,317.5,156.9,320.4z"/>
			</g>
			<g>
				<path class="st3" d="M170.2,321.6h-9.4c0.2,2.5,1.9,4.2,4.3,4.2c1.6,0,2.9-0.8,3.7-2.1l0.9,0.4c-0.9,1.6-2.7,2.6-4.6,2.6
					c-2.9,0-5.3-2.2-5.3-5.5s2.4-5.5,5.3-5.5c3,0,5.2,2.2,5.2,5.5L170.2,321.6L170.2,321.6z M169.2,320.8c-0.2-2.5-1.8-4.1-4.2-4.1
					c-2.3,0-4.1,1.5-4.3,4.1H169.2z"/>
			</g>
			<g>
				<path class="st3" d="M182.3,310.3h1v16.2h-1v-2.3c-0.9,1.5-2.6,2.6-4.6,2.6c-3,0-5.4-2.4-5.4-5.5s2.4-5.5,5.4-5.5
					c1.9,0,3.6,1.1,4.6,2.6V310.3z M182.3,321.3c0-2.7-2.1-4.6-4.5-4.6s-4.5,2-4.5,4.6c0,2.5,2,4.6,4.5,4.6S182.3,323.9,182.3,321.3
					z"/>
			</g>
			<g>
				<path class="st3" d="M186.8,312.1c0-0.5,0.4-0.8,0.9-0.8s0.9,0.3,0.9,0.8c0,0.4-0.4,0.8-0.9,0.8
					C187.1,312.9,186.8,312.6,186.8,312.1z M187.1,326.5V316h1v10.5H187.1z"/>
			</g>
			<g>
				<path class="st3" d="M200.9,320.4v6.1h-1v-6.1c0-2.2-1.4-3.6-3.3-3.6c-1.8,0-3.6,1.1-3.7,3.9v5.9h-1V316h1v2.1
					c0.6-1.7,2.3-2.4,3.8-2.4C199.1,315.7,200.9,317.5,200.9,320.4z"/>
			</g>
			<g>
				<path class="st3" d="M213.7,316h1v10.5h-1V324c-0.9,1.6-2.6,2.7-4.6,2.7c-2.9,0-5.4-2.4-5.4-5.5c0-3,2.4-5.5,5.4-5.5
					c1.9,0,3.7,1.1,4.6,2.7V316L213.7,316z M213.7,321.3c0-2.7-2.1-4.6-4.5-4.6s-4.4,2.1-4.4,4.6s2,4.6,4.5,4.6
					C211.7,325.8,213.7,323.9,213.7,321.3z"/>
			</g>
		</g>
		<g>
			<path class="st4" d="M272.8,270.3c0-67-54.5-121.5-121.5-121.5S29.7,203.3,29.7,270.3c0,13.5,2.2,26.6,6.3,38.7
				c0.7-6.6,3.4-11,7.5-13.9c-1.8-8-2.8-16.3-2.8-24.8c0-61,49.6-110.5,110.5-110.5s110.5,49.6,110.5,110.5
				c0,20.4-5.5,39.5-15.2,55.9c-2.5,3.3-7,4.6-10.4,3.8c-3.8-0.9-5.8-3.9-5.8-8.7v-17.5l0,0v-86.2h-14.2L186.2,288l-30.4-70.4h-14.3
				v86.1h10v-72.4l28.9,68.4h10l29-68.4v72.4l0,0v17.5c0,10,5.5,17.4,14.3,19.4c1.5,0.3,3.1,0.5,4.7,0.5c7.9,0,15.5-4.5,19.1-11.9
				l0,0C267.2,311.9,272.8,291.8,272.8,270.3z"/>
		</g>
		<g>
			<g>
				<path class="st5" d="M234.3,343.2c-20.3,23.1-50,37.7-83,37.7c-45.2,0-84.2-27.3-101.2-66.3c-0.8-2.3-1.2-5.3,0.3-7.6
					c1.4-2,4.2-3.1,7.7-3.1h8.5l0,0h25.8c7.3,0,15-0.2,22.2-4.9c6.1-4,10.2-10.5,10.2-19.6c0-20.1-19.7-21.4-19.7-21.4
					s14.6-1.7,14.6-19.1c0-8.6-3.6-14.3-9.5-17.6c-6.1-3.4-12.5-3.4-19.2-3.4H66.4V293H58c-7.2,0-13.3,2.9-16.7,7.9
					s-3.9,11.6-1.3,18.4l1,2.1c19.3,41.6,61.5,70.5,110.3,70.5c41.1,0,77.5-20.5,99.5-51.8C245.7,342.9,240.3,344,234.3,343.2z
					 M77.5,226h12.4c4.1,0,8.2,0,12,2.1c4.1,2.3,6.2,6.7,6.2,12.2c0,6.4-2.7,10.1-6.4,12.2c-3.8,2.1-7.4,2.1-11.6,2.1H77.5V226
					L77.5,226z M77.5,263.1h13.3c4.3,0,9.4,0,14.6,2.9c5.4,3,7.7,7.6,7.7,13.3c0,5.8-2.4,10.3-6.5,13.1c-4.9,3.3-10.3,3.3-14.6,3.3
					H77.5V263.1z"/>
			</g>
		</g>
	</g>
</g>
<g>
	<g class="st6">
		<path class="st7" d="M379.9,215.1c14.2,0,22.4,10.7,22.4,24.6s-8.2,24.4-22.4,24.4h-19.4V215L379.9,215.1L379.9,215.1z
			 M379.9,254.4c7.3,0,11.1-7.1,11.1-14.7c0-7.7-3.8-14.9-11.1-14.9h-8.2v29.6H379.9L379.9,254.4z"/>
		<path class="st7" d="M418.7,254.4h20.9v9.8h-32.1v-49.1H439v9.8h-20.3V235h17.8v10h-17.8V254.4z"/>
		<path class="st7" d="M442.8,249.9H454c0,3.1,3.1,5.5,7,5.5c3.6,0,6.4-1.8,6.4-5.1c0-1.9-1.1-3.7-5.4-5.1l-5.8-1.8
			c-10.8-2.9-12.9-9.6-12.9-14.2c0-8.9,7.5-15,17.3-15c9.4,0,16.6,5.6,16.6,15.2H466c0-2.9-1.8-5.4-5.6-5.4c-3.5,0-5.8,2.4-5.8,5.1
			c0,1,0.3,3.2,4.8,4.5l5.1,1.7c7,2.1,14.1,5.7,14.1,14.6c0,10.6-9.1,15.3-18.1,15.3C450,265.1,442.8,258.9,442.8,249.9z"/>
		<path class="st7" d="M483.8,264.2v-49.1H495v49.1H483.8L483.8,264.2z"/>
		<path class="st7" d="M500,239.7c0-14,11-25.4,25.2-25.4c7.8,0,14.5,3.3,18.8,8.4l-8.3,6.9c-2.6-3.1-6.3-4.9-10.6-4.9
			c-7.9,0-14,6.8-14,15c0,8.1,5.9,15.4,14.3,15.4c5.5,0,11.6-3.1,11.6-7.9h-13.8v-9.1h26c0,18.6-10.3,27-23.5,27
			C510.7,265.1,500,253.5,500,239.7z"/>
		<path class="st7" d="M579.4,215.1h11.2v49.1h-9.8L564.7,236v28.2h-11.2v-49.1h10.2l15.7,27.9L579.4,215.1L579.4,215.1z"/>
		<path class="st7" d="M609.7,254.4h20.9v9.8h-32.1v-49.1H630v9.8h-20.3V235h17.8v10h-17.8V254.4z"/>
		<path class="st7" d="M661.1,264.2L649.8,247h-2.3v17.2h-11.2v-49.1h20.1c11.4,0,16.5,8.1,16.5,16.2c0,6.9-5.1,13.5-11.5,15
			l12.6,17.9H661.1L661.1,264.2z M647.5,224.9v13.3h7.1c4.9,0,7.1-3.2,7.1-6.5s-2.2-6.8-6.8-6.8H647.5z"/>
	</g>
	<rect x="360.6" y="256.9" class="st7" width="307.4" height="8.9"/>
	<polygon class="st7" points="674.1,264.2 674.1,265.8 667.9,265.8 666.3,259.2 	"/>
	<g>
		<g>
			<path class="st8" d="M371.2,256h0.6v8.5c0,4.9-2.1,6.3-5.2,6.3c-1.5,0-3-0.7-4-2.1l0.5-0.3c0.9,1.2,2.2,1.8,3.5,1.8
				c2.7,0,4.6-1.2,4.6-5.7v-1c-0.9,1.6-2.5,2.7-4.5,2.7c-2.8,0-5.1-2.3-5.1-5.1c0-2.8,2.3-5.1,5.1-5.1c2,0,3.6,1.1,4.5,2.7V256z
				 M371.2,261c0-2.7-2-4.6-4.5-4.6c-2.4,0-4.4,2.1-4.4,4.5c0,2.5,2,4.5,4.4,4.5C369.2,265.4,371.2,263.6,371.2,261z"/>
			<path class="st8" d="M380,256l-0.2,0.6c-0.5-0.1-0.9-0.2-1.2-0.2c-2.9,0-3.4,3.4-3.5,5.5v3.8h-0.6v-9.8h0.6v2.7
				c0.4-1.6,1.6-3,3.5-3C379,255.8,379.5,255.8,380,256z"/>
			<path class="st8" d="M389,256h0.6v9.8H389v-2.4c-0.9,1.6-2.5,2.7-4.5,2.7c-2.8,0-5.1-2.3-5.1-5.1c0-2.8,2.3-5.1,5.1-5.1
				c2,0,3.6,1.1,4.5,2.7V256z M389,261c0-2.7-2-4.6-4.5-4.6c-2.4,0-4.4,2.1-4.4,4.5c0,2.5,2,4.5,4.4,4.5
				C387,265.4,389,263.6,389,261z"/>
			<path class="st8" d="M402.4,260.9c0,2.8-2.3,5.1-5.1,5.1c-2,0-3.6-1.1-4.5-2.7v7.2h-0.6V256h0.6v2.4c0.9-1.6,2.5-2.7,4.5-2.7
				C400.2,255.8,402.4,258.1,402.4,260.9z M401.8,260.9c0-2.5-2-4.5-4.4-4.5s-4.5,1.9-4.5,4.4c0,2.7,2,4.6,4.5,4.6
				C399.8,265.4,401.8,263.4,401.8,260.9z"/>
			<path class="st8" d="M412.6,260.1v5.8H412v-5.8c0-2.2-1.5-3.7-3.4-3.7c-1.8,0-3.5,1-3.6,3.8v5.6h-0.6v-15.1h0.6v7.5
				c0.6-1.7,2.2-2.4,3.6-2.4C410.9,255.8,412.6,257.4,412.6,260.1z"/>
			<path class="st8" d="M414.7,252.4c0-0.3,0.3-0.6,0.7-0.6c0.4,0,0.7,0.3,0.7,0.6c0,0.3-0.3,0.6-0.7,0.6
				C415.1,253,414.7,252.8,414.7,252.4z M415.1,265.8V256h0.6v9.8H415.1z"/>
			<path class="st8" d="M417.6,260.9c0-3.1,2.3-5.1,5.1-5.1c1.2,0,2.3,0.4,3.2,1l-0.3,0.5c-0.8-0.5-1.8-0.9-2.8-0.9
				c-2.4,0-4.4,1.8-4.4,4.5s2,4.5,4.4,4.5c1,0,2-0.3,2.8-0.9l0.4,0.5c-0.9,0.7-2,1-3.2,1C419.9,266.1,417.6,264,417.6,260.9z"/>
		</g>
	</g>
	<g>
		<g>
			<path class="st8" d="M634.1,260.9c0,2.8-2.3,5.1-5.1,5.1c-2,0-3.6-1.1-4.5-2.7v2.4h-0.6v-15.1h0.6v7.7c0.9-1.6,2.5-2.7,4.5-2.7
				C631.9,255.8,634.1,258.1,634.1,260.9z M633.5,260.9c0-2.4-2-4.5-4.4-4.5s-4.5,1.9-4.5,4.6c0,2.5,2,4.4,4.5,4.4
				C631.5,265.4,633.5,263.4,633.5,260.9z"/>
			<path class="st8" d="M641.6,256l-0.2,0.6c-0.5-0.1-0.9-0.2-1.2-0.2c-2.9,0-3.4,3.4-3.5,5.5v3.8h-0.6v-9.8h0.6v2.7
				c0.4-1.6,1.6-3,3.5-3C640.6,255.8,641,255.8,641.6,256z"/>
			<path class="st8" d="M650.5,256h0.6v9.8h-0.6v-2.4c-0.9,1.6-2.5,2.7-4.5,2.7c-2.8,0-5.1-2.3-5.1-5.1c0-2.8,2.3-5.1,5.1-5.1
				c2,0,3.6,1.1,4.5,2.7V256z M650.5,261c0-2.7-2-4.6-4.5-4.6c-2.4,0-4.4,2.1-4.4,4.5c0,2.5,2,4.5,4.4,4.5S650.5,263.6,650.5,261z"
				/>
			<path class="st8" d="M662.1,260.1v5.8h-0.6v-5.8c0-2.2-1.5-3.7-3.4-3.7c-1.8,0-3.5,1-3.6,3.8v5.6h-0.6V256h0.6v2.1
				c0.6-1.7,2.2-2.4,3.6-2.4C660.3,255.8,662.1,257.4,662.1,260.1z"/>
			<path class="st8" d="M673.4,250.7h0.6v15.1h-0.6v-2.4c-0.9,1.6-2.5,2.7-4.5,2.7c-2.8,0-5.1-2.3-5.1-5.1c0-2.8,2.3-5.1,5.1-5.1
				c2,0,3.6,1.1,4.5,2.7V250.7z M673.4,261c0-2.7-2-4.6-4.5-4.6c-2.4,0-4.4,2.1-4.4,4.5c0,2.5,2,4.5,4.4,4.5S673.4,263.6,673.4,261z
				"/>
		</g>
	</g>
	<g>
		<g>
			<path class="st8" d="M520.8,256h0.7l-3.7,9.8h-0.7l-3.5-9.1l-3.4,9.1h-0.7l-3.8-9.8h0.7l3.4,8.9l3.3-8.9h0.8l3.4,8.9L520.8,256z"
				/>
			<path class="st8" d="M531.6,261.2h-9.1c0.2,2.5,1.9,4.3,4.3,4.3c1.6,0,2.9-0.8,3.7-2l0.5,0.3c-0.9,1.4-2.4,2.3-4.2,2.3
				c-2.7,0-4.9-2.1-4.9-5.2s2.2-5.1,4.9-5.1s4.8,2,4.8,5.1V261.2L531.6,261.2z M531,260.6c-0.1-2.5-1.8-4.2-4.1-4.2
				c-2.4,0-4.1,1.6-4.3,4.2H531z"/>
			<path class="st8" d="M543.7,260.9c0,2.8-2.3,5.1-5.1,5.1c-2,0-3.6-1.1-4.5-2.7v2.4h-0.6v-15.1h0.6v7.7c0.9-1.6,2.5-2.7,4.5-2.7
				C541.4,255.8,543.7,258.1,543.7,260.9z M543,260.9c0-2.4-2-4.5-4.4-4.5s-4.5,1.9-4.5,4.6c0,2.5,2,4.4,4.5,4.4
				C541,265.4,543,263.4,543,260.9z"/>
		</g>
	</g>
</g>
<path class="st9" d="M760,139.2c-28,0-55.9,19-55.9,55.9v108.5"/>
<path class="st9" d="M704.1,303.6c0,36.9-27.9,55.9-55.9,55.9H451.4h-42.3c-28,0-55.9,19-55.9,55.9v217.5"/>
<path class="st9" d="M-4.2,531.8c36.9,0,55.9,27.9,55.9,55.9v251.5"/>
<path class="st9" d="M51.7,839.2c0,28,19,55.9,55.9,55.9h672.7"/>
<g class="st0">
	<path class="st10" d="M676.1,818.3h-16.2H264.5h-23.3v23.3v79.8V992v58.9v9.6c0,12.8,10.5,23.3,23.3,23.3H276h400.1h23.3v-23.3
		v-74.1v-70.6V858v-16.4C699.4,828.7,688.9,818.3,676.1,818.3z"/>
</g>
<g>
	<path class="st7" d="M618.4,559.8h-16.2H206.8h-23.3v23.3v79.8v70.6v58.9v9.6c0,12.8,10.5,23.3,23.3,23.3h11.5h400.1h23.3V802
		v-74.1v-70.6v-57.7v-16.4C641.7,570.2,631.2,559.8,618.4,559.8z"/>
	<g>
		<path class="st11" d="M388.1,838l-5.3-16.4h-24.7l-5.2,16.4h-17.2l26.1-70.4h17.5l26,70.4H388.1z M362.5,807.7h15.9l-8-24.9
			L362.5,807.7z"/>
		<path class="st11" d="M460.1,817.7c0,9.6-6.3,20.3-22.8,20.3h-30.6v-70.4h28.5c12.9,0,21.1,7.8,21.1,18.2c0,4.9-1.9,12.3-9.9,14.6
			C455.9,801.7,460.1,809.6,460.1,817.7z M434.2,781.4h-11.3V795H434c3.8,0,6.3-2.5,6.3-6.8C440.4,784.7,438.6,781.4,434.2,781.4z
			 M435.4,824c5.7,0,8.6-3.9,8.6-7.9c0-3.7-2.5-7.9-8.6-7.9h-12.6V824H435.4L435.4,824z"/>
		<path class="st11" d="M462.6,802.6c0-20,15.9-36.4,36-36.4c19.8,0,35.9,16.5,35.9,36.4c0,20-16.1,36.5-35.9,36.5
			C478.4,839.2,462.6,822.6,462.6,802.6z M518.4,802.6c0-11.8-8.1-21.3-19.8-21.3c-11.8,0-19.7,9.5-19.7,21.3s7.9,21.4,19.7,21.4
			C510.3,824,518.4,814.4,518.4,802.6z"/>
		<path class="st11" d="M540.3,812.8v-45.3h16.1v44.1c0,8.9,5.6,12.4,11.5,12.4c5.7,0,11.3-3.5,11.3-12.4v-44.1h16.1v45.3
			c0,16.2-12.9,26.4-27.4,26.4C553.3,839.2,540.3,829,540.3,812.8z"/>
		<path class="st11" d="M641.7,781.4h-8v56.5h-16.1v-56.5H599v-14h42.7"/>
	</g>
</g>
<path class="st9" d="M-3,55.9h702.2c28,0,55.9-19,55.9-55.9"/>
</svg>
